<?xml version="1.0" encoding="UTF-8"?>
<svg width="26px" height="21px" viewBox="0 0 26 21" version="1.1" xmlns="http://www.w3.org/2000/svg" xmlns:xlink="http://www.w3.org/1999/xlink">
    <!-- Generator: Sketch 62 (91390) - https://sketch.com -->
    <title>Chechen- M</title>
    <desc>Created with Sketch.</desc>
    <defs>
        <rect id="path-1" x="0" y="0" width="20" height="15" rx="2"></rect>
        <filter x="-27.5%" y="-23.3%" width="155.0%" height="173.3%" filterUnits="objectBoundingBox" id="filter-3">
            <feOffset dx="0" dy="2" in="SourceAlpha" result="shadowOffsetOuter1"></feOffset>
            <feGaussianBlur stdDeviation="1.5" in="shadowOffsetOuter1" result="shadowBlurOuter1"></feGaussianBlur>
            <feColorMatrix values="0 0 0 0 0   0 0 0 0 0   0 0 0 0 0  0 0 0 0.1 0" type="matrix" in="shadowBlurOuter1"></feColorMatrix>
        </filter>
        <rect id="path-4" x="0" y="0" width="20" height="15" rx="2"></rect>
        <linearGradient x1="50%" y1="100%" x2="50%" y2="0%" id="linearGradient-6">
            <stop stop-color="#000000" stop-opacity="0.3" offset="2.42052023%"></stop>
            <stop stop-color="#FFFFFF" stop-opacity="0.7" offset="100%"></stop>
        </linearGradient>
        <rect id="path-7" x="0" y="0" width="20" height="15" rx="2"></rect>
    </defs>
    <g id="Page-1" stroke="none" stroke-width="1" fill="none" fill-rule="evenodd">
        <g id="Desktop-HD" transform="translate(-490.000000, -511.000000)">
            <g id="Chechen--M" transform="translate(493.000000, 512.000000)">
                <mask id="mask-2" fill="white">
                    <use xlink:href="#path-1"></use>
                </mask>
                <g id="drop-shadow" fill="black" fill-opacity="1">
                    <use filter="url(#filter-3)" xlink:href="#path-1"></use>
                </g>
                <g id="chechen" mask="url(#mask-2)">
                    <mask id="mask-5" fill="white">
                        <use xlink:href="#path-4"></use>
                    </mask>
                    <use id="Mask" fill="#D8D8D8" xlink:href="#path-4"></use>
                    <g mask="url(#mask-5)">
                        <g transform="translate(0.000000, -0.937500)">
                            <g id="g4557" transform="translate(0.000000, 0.312500)">
                                <g id="g4555" fill-rule="nonzero">
                                    <path d="M0,16.2444982 C0,10.8296655 0,5.41483273 0,0 C7.70631234,0 15.4126247,0 23.118937,0 C23.118937,5.41483273 23.118937,10.8296655 23.118937,16.2444982 C15.4126247,16.2444982 7.70631234,16.2444982 0,16.2444982 Z M12.6332092,0.367694075 C9.18277999,0.367694075 5.73241664,0.367694075 2.28198739,0.367694075 C2.2587899,0.367694075 2.23559241,0.367694075 2.21246082,0.36783555 C2.20402536,0.367901048 2.19565581,0.368490528 2.18722036,0.369145506 C2.17680785,0.369931479 2.16771338,0.378904676 2.16738387,0.389973801 C2.16652714,0.417155381 2.1657949,0.444402459 2.1657949,0.471649536 C2.1657949,3.4094216 2.1657949,6.34725917 2.1657949,9.28503124 C2.1657949,9.30599053 2.1657949,9.32694982 2.1657949,9.34790911 C2.16613173,9.35622733 2.16712026,9.36461104 2.16791109,9.37292926 C2.16883371,9.38242644 2.17871901,9.39270959 2.18893381,9.39303708 C2.22050085,9.39421604 2.2520679,9.39541596 2.28363494,9.39541596 C9.17810095,9.39541596 16.0726329,9.39541596 22.9670989,9.39541596 C22.9902964,9.39541596 23.0134939,9.395526 23.0366255,9.39513301 C23.0471039,9.39493652 23.0576482,9.39395405 23.0681266,9.39284059 C23.0778142,9.39179262 23.08737,9.38177146 23.0876995,9.37129182 C23.0885562,9.34411024 23.0894459,9.31686316 23.0894459,9.28968158 C23.0894459,6.34981358 23.0894459,3.40988009 23.0894459,0.470012092 C23.0894459,0.45114873 23.0894459,0.432285369 23.0894459,0.413422007 C23.0891493,0.405103789 23.0884244,0.396720073 23.0876336,0.388401854 C23.0866451,0.378118702 23.077287,0.36901451 23.0666109,0.368752519 C23.0391956,0.368163039 23.0118463,0.367694075 22.9844311,0.367694075 C19.5340019,0.367694075 16.0836385,0.367694075 12.6332092,0.367694075 Z M12.6274099,15.6570486 C16.0672289,15.6570486 19.5071139,15.6570486 22.9469329,15.6570486 C22.9722392,15.6570486 22.9975456,15.6571796 23.0227861,15.6569831 C23.0354392,15.6569176 23.0480924,15.6565246 23.0606797,15.6557386 C23.0782755,15.6545597 23.0880949,15.644997 23.0886221,15.628295 C23.0893763,15.6073358 23.0893763,15.5863765 23.0893763,15.5654172 C23.0893763,15.28882 23.0893763,15.0122229 23.0893763,14.7356258 C23.0893763,13.4511487 23.0893763,12.1666717 23.0893763,10.8821292 C23.0893763,10.859074 23.0893763,10.8360187 23.0888857,10.8129635 C23.0883585,10.7912183 23.0793958,10.7814591 23.0589003,10.7807386 C23.0357687,10.7798871 23.0125712,10.7798216 22.9893738,10.7798216 C16.0822546,10.7797725 9.17520127,10.7797725 2.26808207,10.7798216 C2.24910231,10.7798216 2.23012254,10.7796252 2.21120868,10.7800836 C2.20283913,10.7802801 2.19453548,10.7816556 2.18623183,10.782769 C2.17924622,10.783686 2.16962454,10.7925937 2.16929503,10.7994055 C2.16804289,10.8244256 2.16632944,10.8495113 2.16632944,10.8745314 C2.16632944,12.4377015 2.16632944,14.0008716 2.16632944,15.5641072 C2.16632944,15.5829706 2.16632944,15.6018339 2.16685665,15.6206973 C2.16698846,15.6269196 2.16718616,15.6337314 2.16975634,15.6391677 C2.17219471,15.644342 2.17707146,15.6498438 2.18221181,15.6519397 C2.18972464,15.6550181 2.1984237,15.6563281 2.20672734,15.6565246 C2.23414256,15.6571796 2.26149188,15.6571159 2.2889071,15.6571159 C5.73505272,15.6570486 9.18119835,15.6570486 12.6274099,15.6570486 L12.6274099,15.6570486 Z" id="path4549" fill="#FFFFFF"></path>
                                    <path d="M12.6332092,0.367694075 C16.0836385,0.367694075 19.5340019,0.367694075 22.9844311,0.367694075 C23.0118463,0.367694075 23.0391956,0.368163039 23.0666109,0.368752519 C23.077287,0.36901451 23.0866451,0.378118702 23.0876336,0.388401854 C23.0884244,0.396720073 23.0891493,0.405103789 23.0894459,0.413422007 C23.0894459,0.432285369 23.0894459,0.45114873 23.0894459,0.470012092 C23.0894459,3.40988009 23.0894459,6.34981358 23.0894459,9.28968158 C23.0894459,9.31686316 23.0886221,9.34411024 23.0876995,9.37129182 C23.08737,9.38177146 23.0778801,9.39179262 23.0681266,9.39284059 C23.0576482,9.39395405 23.0471698,9.39493652 23.0366255,9.39513301 C23.013428,9.395526 22.9902305,9.39541596 22.9670989,9.39541596 C16.0726329,9.39541596 9.17810095,9.39541596 2.28363494,9.39541596 C2.2520679,9.39541596 2.22050085,9.39421604 2.18893381,9.39303708 C2.17878491,9.3926441 2.16889962,9.38242644 2.16791109,9.37292926 C2.16705436,9.36461104 2.16613173,9.35629283 2.16599993,9.34790911 C2.16577619,9.32694982 2.16577619,9.30599053 2.16577619,9.28503124 C2.16577619,6.34725917 2.16577619,3.4094216 2.16577619,0.471649536 C2.16577619,0.444402459 2.16652714,0.417220879 2.16738387,0.389973801 C2.16771338,0.378970173 2.17687375,0.369996977 2.18722036,0.369145506 C2.19558991,0.368490528 2.20402536,0.367901048 2.21246082,0.36783555 C2.23565831,0.367694075 2.2588558,0.367694075 2.28198739,0.367694075 C5.73241664,0.367694075 9.1828459,0.367694075 12.6332092,0.367694075 Z" id="path4551" fill="#2B7338"></path>
                                    <path d="M12.6274099,15.6570504 C9.18126425,15.6570504 5.73505272,15.6570504 2.2889071,15.6570504 C2.26149188,15.6570504 2.23407666,15.6571141 2.20672734,15.6564591 C2.1984896,15.6562626 2.18979054,15.6549526 2.18221181,15.6518742 C2.17707146,15.6497783 2.17219471,15.6442765 2.16975634,15.6391022 C2.16718616,15.6336659 2.16698846,15.6268541 2.16685665,15.6206318 C2.16632944,15.6017684 2.16632944,15.5829051 2.16632944,15.5640417 C2.16632944,14.0008716 2.16632944,12.4377015 2.16632944,10.8744659 C2.16632944,10.8493803 2.16804289,10.8243601 2.16929503,10.79934 C2.16962454,10.7925282 2.17924622,10.783686 2.18623183,10.7827035 C2.19453548,10.7815901 2.20290503,10.7802146 2.21120868,10.7800181 C2.23018844,10.7795597 2.24916821,10.7797143 2.26808207,10.7797143 C9.17520127,10.7797143 16.0822546,10.7797143 22.9893738,10.7797143 C23.0125712,10.7797143 23.0357687,10.7798216 23.0589003,10.7806731 C23.0793958,10.7813936 23.0883585,10.7911528 23.0888857,10.812898 C23.0893595,10.8359532 23.0893595,10.8590085 23.0893595,10.8820637 C23.0893595,12.1665407 23.0893595,13.4510177 23.0893595,14.7355603 C23.0893595,15.0121574 23.0893595,15.2887545 23.0893595,15.5653517 C23.0893595,15.586311 23.0893595,15.6072703 23.0886221,15.6282295 C23.0880949,15.6449315 23.0782096,15.6545597 23.0606797,15.6556731 C23.0480924,15.6565246 23.0354392,15.6568521 23.0227861,15.6569176 C22.9974797,15.6571141 22.9721733,15.6569831 22.9469329,15.6569831 C19.5070479,15.6570504 16.0672289,15.6570504 12.6274099,15.6570504 L12.6274099,15.6570504 Z" id="path4553" fill="#DA251D"></path>
                                </g>
                            </g>
                            <g id="g4493" transform="translate(0.000000, 0.312500)">
                                <g id="g4491" transform="translate(0.004511, 0.017269)" fill="#FFCC00" fill-rule="nonzero">
                                    <path d="M0.850511735,15.7248524 L0.83525145,15.7284115 L0.818103632,15.7327088 L0.793780008,15.7374928 L0.756460764,15.7409117 L0.713887872,15.7431007 L0.676166229,15.7421886 L0.595838941,15.7322278 L0.554126996,15.722914 C0.554126996,15.722914 0.548369881,15.7265806 0.554126996,15.722914 C0.559089606,15.7197247 0.545392127,15.7273938 0.554126996,15.722914 C0.536856587,15.7179591 0.52295978,15.7145642 0.509460692,15.7100154 C0.493381572,15.7046534 0.477499908,15.6984743 0.461684686,15.6923653 C0.447855257,15.6870023 0.43395845,15.6815712 0.420393856,15.6754603 C0.359779446,15.6482372 0.305121479,15.6115776 0.256352576,15.5657541 C0.245434458,15.5555023 0.235309909,15.5443021 0.224391791,15.5341176 C0.165697667,15.4792654 0.125067521,15.4104259 0.0832470216,15.3424024 C0.0359342422,15.2394849 -0.00198298547,15.1343266 0.0013260455,15.0176954 C0.00278216886,14.9655564 0.00218699247,14.9134856 0.0156187011,14.8625026 C0.0494333293,14.7347382 0.113686176,14.6284921 0.218767562,14.5487932 C0.272499075,14.5079927 0.330466073,14.4765607 0.395049262,14.4625743 C0.482727353,14.4435657 0.571067063,14.4428207 0.65848032,14.4700428 C0.721079587,14.4895266 0.773884647,14.5258473 0.818881291,14.5719426 C0.863877936,14.6180388 0.897758071,14.6734353 0.921051366,14.7353498 C0.94460856,14.7978058 0.951092801,14.8621636 0.943549221,14.927472 C0.93514563,15.0001806 0.906757775,15.0648774 0.860040172,15.1212244 C0.817491611,15.1724801 0.763032036,15.204251 0.703013738,15.2278766 C0.697124673,15.2301837 0.690838824,15.2315412 0.684618483,15.2326953 C0.649878336,15.2393496 0.615865316,15.2153159 0.609844302,15.1790653 C0.605873652,15.1551008 0.616328543,15.1364311 0.634658291,15.1229881 C0.644849283,15.1155216 0.656627412,15.1096152 0.668538426,15.1056779 C0.708440511,15.0925757 0.737953212,15.0652173 0.765613005,15.0347348 C0.792478294,15.0050684 0.807631896,14.9696982 0.813918681,14.9303225 C0.819741303,14.8936629 0.818616457,14.8567325 0.814779628,14.8198703 C0.814311722,14.8155931 0.813918681,14.8111115 0.812596379,14.8070388 C0.782554008,14.714712 0.731932198,14.6410528 0.641474745,14.6006595 C0.547312413,14.5586369 0.454936546,14.5673937 0.364743929,14.6098234 C0.281631664,14.6489274 0.218503663,14.7104348 0.174895763,14.7945473 C0.140023667,14.861891 0.129568776,14.9338536 0.123613269,15.0077163 C0.128442995,15.0529965 0.130957521,15.0986847 0.142670143,15.1428799 C0.164044088,15.2232596 0.19593843,15.2986824 0.246428291,15.3646023 C0.292351389,15.4245477 0.342906757,15.4801468 0.405902809,15.5218295 C0.484184412,15.5735604 0.569546369,15.6024818 0.663576751,15.6011915 C0.68686911,15.6031827 0.710161469,15.6023369 0.733388321,15.6011915 C0.836682306,15.6022793 0.928331047,15.5656187 1.0128985,15.5082531 C1.08476137,15.4595089 1.13875772,15.3937945 1.18435047,15.3189141 C1.23232487,15.2401637 1.26137435,15.1544201 1.27977054,15.0650128 C1.29194639,15.0058144 1.30134287,14.945123 1.29677705,14.8839555 C1.29359997,14.8407107 1.29022543,14.7971942 1.28215311,14.7546973 C1.26759469,14.677916 1.24668491,14.6029685 1.21703932,14.5303962 C1.17760046,14.4337912 1.12969251,14.3422103 1.07258552,14.2557207 C1.017994,14.1728976 0.957843748,14.0946224 0.887767343,14.0244945 C0.801346983,13.9381412 0.716778595,13.8498188 0.630953412,13.7627868 C0.608389115,13.7399081 0.584831921,13.7179809 0.560678615,13.6970032 C0.53473978,13.6744644 0.509924855,13.6509069 0.489213466,13.6232087 C0.472339841,13.6006027 0.452487526,13.5814578 0.430716798,13.5638749 C0.41582803,13.5518586 0.400940198,13.5388927 0.389227576,13.5237532 C0.337944147,13.4574944 0.283947798,13.3934082 0.238223092,13.3226015 C0.17370541,13.2226708 0.118186496,13.1180549 0.0752411506,13.006515 C0.0408977887,12.9171749 0.0208480181,12.8238966 0.00536313816,12.7295324 C0.00430473487,12.6709456 0.00311344628,12.6122905 0.00218699247,12.5537027 C0.00139155234,12.5057065 0.00648798409,12.4582527 0.017340595,12.4116131 C0.046588461,12.2856816 0.0950260864,12.1687786 0.169337976,12.0632132 C0.248744425,11.9505192 0.353560976,11.8732627 0.478228905,11.8221424 C0.490007034,11.8173228 0.501653214,11.8123669 0.513233886,11.8071392 C0.514888402,11.8063904 0.516939701,11.8033373 0.516608424,11.8020479 C0.515615528,11.798246 0.514292289,11.7931547 0.511512928,11.7915936 C0.50416774,11.78752 0.496095427,11.7846004 0.48808862,11.7820207 C0.424894176,11.7615864 0.367258455,11.730019 0.313592449,11.690508 C0.252912532,11.6458375 0.200570699,11.5925454 0.157426962,11.5299531 C0.14763369,11.5157641 0.138832379,11.5008973 0.128840715,11.4868447 C0.0782853468,11.4154264 0.0461916767,11.335183 0.0252154524,11.2505262 C0.0111866958,11.1937722 0.00112473881,11.1358641 0.00384150796,11.0766657 C0.01158348,10.9078964 0.0723298397,10.7633624 0.198850677,10.6537234 C0.303137558,10.5633647 0.425555795,10.5186951 0.56339247,10.5320009 C0.672708404,10.5425915 0.76614361,10.5886195 0.840521006,10.6739542 C0.886576055,10.7268391 0.920985859,10.7853588 0.937859484,10.8544009 C0.954137933,10.9208632 0.956255675,10.9883433 0.940705288,11.0543986 C0.916618425,11.1565019 0.857923365,11.2337585 0.768393302,11.2856248 C0.746159347,11.2985234 0.722072483,11.3071449 0.69699366,11.3118973 C0.686802668,11.3138655 0.67588455,11.3136619 0.665495166,11.3124446 C0.642070857,11.3096603 0.622748213,11.2907189 0.617255933,11.2668226 C0.612028487,11.2440131 0.622351429,11.216382 0.642401199,11.2047055 C0.657025132,11.1961522 0.672973239,11.1899059 0.688325234,11.1827092 C0.763429756,11.1476798 0.806243151,11.0863778 0.824176115,11.0053866 C0.829337118,10.9819655 0.830991634,10.9577974 0.826822591,10.9341037 C0.817757381,10.8825091 0.803927017,10.8325447 0.771503005,10.7901822 C0.7532397,10.7662849 0.73663091,10.741032 0.712675996,10.7222269 C0.671252281,10.6897753 0.624336286,10.6702243 0.573052856,10.6642497 C0.509396121,10.6567822 0.446532019,10.6608558 0.385720153,10.6857699 C0.351840018,10.6996881 0.320739244,10.7177453 0.292682667,10.7409628 C0.208710391,10.8105483 0.154117931,10.8992778 0.137972367,11.0093239 C0.128509437,11.0737499 0.129237499,11.1388547 0.14366304,11.2034834 C0.165830553,11.3028716 0.20884234,11.3918056 0.270315826,11.4707576 C0.334768001,11.5535816 0.41417445,11.6172598 0.511447421,11.6561602 C0.545261114,11.6696695 0.580266095,11.6786309 0.615734302,11.6835877 C0.685149088,11.6933623 0.754430988,11.6939739 0.823911281,11.678699 C0.924030055,11.6565673 1.00925913,11.6068055 1.08515815,11.5381714 C1.12042797,11.5063314 1.14736064,11.4671602 1.17389558,11.4279218 C1.21154704,11.3722526 1.23907488,11.3113568 1.25998467,11.2470671 C1.29532092,11.1383113 1.30842323,11.0265678 1.29704095,10.9129234 C1.28479959,10.7911317 1.25257397,10.6745686 1.20162088,10.5632322 C1.15463938,10.4605864 1.09819401,10.363846 1.0331476,10.2725368 C0.998208124,10.223522 0.961086336,10.1762717 0.918669725,10.1332986 C0.772562344,9.98530258 0.627380482,9.83635702 0.481801835,9.68775036 C0.475780821,9.68164042 0.470354048,9.67464817 0.463604972,9.66962408 C0.406101201,9.62705806 0.364545536,9.56908182 0.321070522,9.51327823 C0.258868039,9.43344197 0.203019719,9.34905782 0.158088581,9.25747692 C0.131420748,9.20316626 0.105283521,9.14872023 0.0831815148,9.09216971 C0.0570433519,9.02536747 0.0383168194,8.9564617 0.0236264437,8.88633375 C0.0196567295,8.86732516 0.0179357714,8.847705 0.0157525222,8.82835751 C0.014031564,8.8132862 0.0142963988,8.79787503 0.0117163653,8.78294005 C-0.00456208315,8.68715017 0.00437117751,8.59237893 0.0238257717,8.49835368 C0.0450668308,8.39557155 0.082255061,8.29862766 0.134531387,8.20840431 C0.185946766,8.11960726 0.252648633,8.04513419 0.336819301,7.98675068 C0.393462125,7.94737567 0.453282031,7.91635093 0.517866155,7.89415162 C0.525541685,7.89150392 0.532490088,7.88648012 0.539570441,7.88220326 C0.540300375,7.88172802 0.540169361,7.87738328 0.539373921,7.87690804 C0.530242268,7.87181646 0.521374514,7.86591015 0.511647685,7.8625158 C0.471547208,7.84846294 0.432174793,7.83278093 0.394456893,7.81268611 C0.352901229,7.79055458 0.315248836,7.76346732 0.279052566,7.73278207 C0.202756755,7.66815335 0.144061696,7.58899596 0.0951608433,7.50223514 C0.0590965232,7.43814905 0.0326944613,7.36917493 0.0197250438,7.29572011 C0.0137030941,7.26157253 0.00609307146,7.22715344 0.00510017501,7.19273426 C0.000335956482,7.03183994 0.0449358171,6.88866425 0.155377533,6.77060719 C0.168545343,6.75648655 0.182177315,6.74284105 0.196006744,6.72939929 C0.262642168,6.66483777 0.342313452,6.62587012 0.431778009,6.61039164 C0.490273741,6.60027645 0.549895254,6.60299194 0.609052605,6.60978007 C0.611170348,6.61005274 0.613221647,6.61052798 0.615272947,6.61100293 C0.723530478,6.63489946 0.810480508,6.69246825 0.873806901,6.78581415 C0.890615019,6.81059329 0.905967014,6.83727328 0.917348358,6.8651072 C0.97088148,6.99613099 0.963271457,7.12247036 0.888762111,7.24439702 C0.850844884,7.30644659 0.794400451,7.34242725 0.733058915,7.37318037 C0.72180952,7.37881507 0.709104937,7.38180226 0.696797139,7.38492501 C0.669137346,7.39184957 0.64690339,7.38207367 0.629565603,7.35967063 C0.608522936,7.33244762 0.614544885,7.29246161 0.64306469,7.27419977 C0.653718909,7.26741106 0.665894758,7.26299825 0.67720966,7.25722789 C0.692363262,7.24955658 0.708112041,7.24276768 0.72220724,7.23346701 C0.801547247,7.18132911 0.829935102,7.10352955 0.827155741,7.01052313 C0.801480804,6.80224301 0.617853916,6.70047904 0.458246513,6.73394785 C0.38340589,6.74962986 0.31961627,6.78472801 0.262443776,6.83564384 C0.212153243,6.88044992 0.135061992,7.01323872 0.133738754,7.11194771 C0.13341122,7.13367188 0.133832335,7.15539595 0.133008821,7.17712003 C0.130759129,7.23686147 0.145383062,7.29320845 0.164176037,7.34894454 C0.194483242,7.4388959 0.245368952,7.51628809 0.30690888,7.5856017 C0.386381772,7.67501013 0.486566054,7.7290489 0.602698442,7.75084085 C0.621293025,7.75430328 0.640548291,7.75504983 0.659539659,7.75552507 C0.689185245,7.75627297 0.718829895,7.7559331 0.748409038,7.75565372 C0.821926423,7.75497495 0.890413819,7.73263978 0.955792448,7.70080042 C0.98424581,7.6869512 1.01098008,7.66821412 1.03586052,7.64825515 C1.10137109,7.59570988 1.15874198,7.53528967 1.19725438,7.45823687 C1.22140675,7.40990058 1.24443428,7.36129297 1.26130884,7.30942648 C1.30312934,7.18084676 1.31047453,7.05036619 1.2877109,6.91737385 C1.26289691,6.77236528 1.21240705,6.63760775 1.13961773,6.51086101 C1.08244523,6.41140517 1.01746433,6.31792361 0.945271115,6.22953353 C0.937131422,6.219554 0.928331047,6.21011749 0.919199394,6.20102065 C0.861497231,6.1436554 0.808559286,6.08113051 0.744571274,6.03048609 C0.73457961,6.02261124 0.726109576,6.01256374 0.717109873,6.00339893 C0.615072683,5.89925887 0.513564228,5.79450771 0.410865419,5.69111449 C0.372882685,5.65289369 0.339068992,5.61100672 0.307901776,5.56742263 C0.245303445,5.47991525 0.186079651,5.38969229 0.138435594,5.29240872 C0.0849024729,5.1831837 0.0453316656,5.06852108 0.0232961021,4.94842731 C0.00959862294,4.87388636 -0.000790761079,4.79812352 0.00470151912,4.72181746 C0.0116499227,4.62405895 0.0275306511,4.52779373 0.0615436714,4.43560203 C0.0802702039,4.38482177 0.101048036,4.33499199 0.127979768,4.28794566 C0.173638967,4.2081095 0.234517277,4.14178307 0.302740773,4.08299201 C0.349722275,4.04253086 0.401733767,4.00865489 0.460163992,3.98659124 C0.489941527,3.97538981 0.519255836,3.9629663 0.548702094,3.95088228 C0.550422116,3.95020351 0.552871136,3.94748792 0.552539859,3.94633372 C0.551678912,3.94273563 0.550488559,3.9375083 0.54790759,3.93635419 C0.515086794,3.92135373 0.481140216,3.90865872 0.449179431,3.89202603 C0.357465183,3.8440972 0.278257126,3.78062202 0.216717198,3.69454016 C0.167617018,3.62590552 0.123811661,3.55489478 0.0951589717,3.47431177 C0.0604843323,3.37675688 0.0438090996,3.2762149 0.055455279,3.17356834 C0.0735866351,3.0136244 0.14108207,2.88008876 0.268926145,2.78131198 C0.324113782,2.73867837 0.385058534,2.71070851 0.450899454,2.69197143 C0.48398602,2.68253501 0.517998105,2.68144888 0.551613405,2.68063416 C0.604484907,2.6793441 0.65682674,2.68396063 0.708243055,2.7006611 C0.76819491,2.72014492 0.819279012,2.75368161 0.865864665,2.79536474 C0.880091814,2.80812774 0.892729954,2.82319885 0.904112234,2.83874511 C0.936139462,2.88239698 0.960159882,2.93073317 0.979349642,2.98158141 C0.99013581,3.01016217 0.996488101,3.03976138 0.996488101,3.07058229 C0.996488101,3.08796162 0.997283542,3.10534105 0.996881142,3.12272039 C0.994499501,3.23894438 0.94592899,3.33188292 0.858647684,3.40357254 C0.82549561,3.43086343 0.786321587,3.44844649 0.745030757,3.4599874 C0.740928158,3.46114142 0.736759116,3.46182038 0.732590074,3.46243147 C0.703805435,3.46657248 0.676145641,3.44939697 0.667609165,3.42210598 C0.658874296,3.39406834 0.668998846,3.36141416 0.692357647,3.34763301 C0.70698158,3.33901122 0.722796802,3.33256189 0.738347189,3.32577299 C0.772227324,3.3109057 0.799820674,3.28762006 0.823113969,3.25890345 C0.84660472,3.22998311 0.861360602,3.19719327 0.867515437,3.15958345 C0.886837146,3.04098317 0.846736669,2.94451462 0.758463402,2.8710598 C0.689776678,2.81396597 0.607392475,2.7933961 0.519317599,2.80934972 C0.369570846,2.83643689 0.267334329,2.92557371 0.207978586,3.06773105 C0.192891426,3.10384736 0.184024608,3.14206836 0.183296546,3.18157913 C0.18263212,3.22068254 0.181972373,3.25978605 0.183558574,3.29882158 C0.18567538,3.3515025 0.199637694,3.40173955 0.219886793,3.44987211 C0.259787942,3.54471161 0.313983618,3.62970714 0.390014594,3.69847773 C0.46478971,3.76609402 0.551540412,3.81157897 0.649806279,3.82665009 C0.73351372,3.83948086 0.818743727,3.84111021 0.901723107,3.81673843 C1.01924424,3.78225127 1.11658365,3.71701098 1.191093,3.61640122 C1.25607391,3.52869002 1.30285795,3.43215339 1.32687837,3.32482251 C1.34395039,3.24844877 1.3537446,3.17078497 1.34792104,3.09223868 C1.34467845,3.04906194 1.33984779,3.00554573 1.33078258,2.96331948 C1.31152638,2.87411477 1.28446176,2.78721819 1.24528868,2.7048024 C1.21835601,2.6481838 1.19182106,2.59136158 1.15813932,2.53847692 C1.09904841,2.4457421 1.03764043,2.35531532 0.959755612,2.27704053 C0.794921699,2.11139402 0.632402984,1.94337151 0.46849459,1.77677461 C0.40966758,1.7169653 0.35739219,1.65165713 0.310872979,1.58146092 C0.266802788,1.51499884 0.224782961,1.44745033 0.189712473,1.3752175 C0.152788142,1.29918306 0.120959307,1.22138351 0.0966085443,1.1401896 C0.069014258,1.04826932 0.0522725827,0.954719779 0.0535303139,0.858183152 C0.0537268344,0.842976281 0.0536613276,0.827769411 0.0535303139,0.812562541 C0.0525374174,0.681946115 0.0826462304,0.558865342 0.138230651,0.441826629 C0.165162383,0.385140157 0.195204753,0.330762002 0.231929757,0.279710229 C0.285926105,0.204694138 0.354546386,0.148007762 0.431901536,0.101776062 C0.509455078,0.0554086073 0.593228961,0.0258094934 0.682428683,0.0131823533 C0.697119058,0.0110777659 0.711544599,0.00720817087 0.726301417,0.00598618338 C0.749460891,0.00401744709 0.773018085,0.000555213204 0.795848152,0.00306706571 C0.90622249,0.0150153345 1.01256161,0.0416952347 1.10990008,0.0989926038 C1.14490507,0.11963054 1.17838842,0.142169335 1.20697466,0.171836423 C1.21736405,0.182630581 1.22788538,0.193356863 1.23893545,0.20347215 C1.3029899,0.262127262 1.35096524,0.333341732 1.39132961,0.410258778 C1.43288621,0.489551826 1.459686,0.573664947 1.46742797,0.663752153 C1.46782101,0.668096987 1.46789587,0.672441821 1.46855188,0.676718777 C1.48191902,0.76476937 1.46755992,0.8500366 1.43989919,0.932791978 C1.40985775,1.02267555 1.36029435,1.10095034 1.29048278,1.16367878 C1.22100248,1.2261357 1.14219121,1.2720958 1.049485,1.28757427 C0.988540251,1.29775744 0.926867437,1.29931881 0.866188456,1.28757427 C0.785392326,1.27196004 0.715183972,1.23421428 0.656026621,1.17399779 C0.5925009,1.1093685 0.549621997,1.03421656 0.532218703,0.943857743 C0.502837951,0.791109883 0.558356866,0.629129334 0.710949423,0.53951727 C0.73503535,0.525396633 0.760908678,0.515552855 0.788436522,0.51168326 C0.813581789,0.508153053 0.834029279,0.517589565 0.849314831,0.538634767 C0.870027157,0.567215622 0.86354198,0.604621803 0.833896394,0.623562513 C0.824963133,0.629265089 0.815434696,0.634560401 0.805443032,0.637751124 C0.765540947,0.650446142 0.73543307,0.67692241 0.70731005,0.707200491 C0.683223187,0.73320152 0.667143131,0.763547382 0.659864385,0.797966569 C0.643585937,0.875155125 0.650137556,0.950103435 0.692884509,1.01738034 C0.734373731,1.08275638 0.790620707,1.13102469 0.864270042,1.15539647 C0.913567678,1.17175745 0.962799808,1.17304732 1.01441451,1.16367878 C1.11592203,1.14528118 1.1949317,1.09124241 1.25819165,1.01133828 C1.29174144,0.968976268 1.3129825,0.918603463 1.32912807,0.866533431 C1.35142846,0.794707967 1.35367816,0.721864245 1.34004618,0.647730657 C1.32615031,0.572035598 1.29915214,0.501839483 1.2621623,0.435377304 C1.24211159,0.399396646 1.2185544,0.366063692 1.18943942,0.337075572 C1.17269774,0.320442986 1.15562479,0.304082006 1.14027373,0.286159651 C1.09560743,0.234089619 1.0381701,0.20231804 0.977026957,0.176588521 C0.937786491,0.160023909 0.897025331,0.147871911 0.855336781,0.139929089 C0.807097548,0.130764183 0.758262202,0.131646782 0.709890084,0.138231863 C0.624792962,0.149840744 0.546181017,0.180865478 0.472398797,0.225603584 C0.424424398,0.254727555 0.383662302,0.292676853 0.348458929,0.336328823 C0.257273415,0.449565819 0.202417056,0.579503278 0.183756966,0.725326575 C0.18210245,0.738225225 0.180249543,0.751123971 0.177999851,0.763954744 C0.17111789,0.802786641 0.170521778,0.841957926 0.174823705,0.880857702 C0.179786316,0.926071047 0.186138607,0.971352366 0.195204753,1.01595472 C0.219092288,1.13360442 0.260251169,1.24466905 0.317424598,1.34989535 C0.36083317,1.42979939 0.409138846,1.50610544 0.463267144,1.57860968 C0.483846584,1.60617218 0.504955694,1.63339529 0.526991257,1.6597358 C0.539365498,1.67446753 0.553856546,1.68736618 0.56781886,1.70060422 C0.592633785,1.72422934 0.61857262,1.74663219 0.642593041,1.77100397 C0.777981631,1.90854505 0.912641224,2.04676472 1.04809532,2.18416986 C1.09944519,2.23630777 1.14397861,2.2940125 1.1867265,2.35348234 C1.22199538,2.40242942 1.25369227,2.45382068 1.28452821,2.50568698 C1.33422356,2.58939294 1.37445599,2.6778507 1.40648322,2.77024612 C1.41568131,2.79685834 1.42441618,2.82367399 1.43195976,2.85076126 C1.45406083,2.93039388 1.47027284,3.0109767 1.46742797,3.0945469 C1.46656702,3.12054792 1.46643507,3.1466848 1.46752155,3.17275362 C1.47188898,3.27913402 1.44760373,3.38001548 1.40882649,3.47723089 C1.37342472,3.56589257 1.32968487,3.65020942 1.26893851,3.7240714 C1.262123,3.7323538 1.2557707,3.7412471 1.24802873,3.74857903 C1.17616586,3.81660277 1.10092846,3.87973838 1.00815487,3.91605852 C0.984465726,3.92529111 0.959849193,3.93194416 0.93563038,3.93961557 C0.926630677,3.94246681 0.920609663,3.94830514 0.923520974,3.9519712 C0.927226789,3.9567232 0.931329388,3.96262961 0.936490391,3.96446249 C0.974473126,3.97831162 1.01139746,3.99460472 1.04673372,4.01442793 C1.11402982,4.05224157 1.17510652,4.09813389 1.22367703,4.16004769 C1.23294157,4.17186011 1.2436613,4.18251842 1.25338813,4.19392367 C1.26311589,4.20532882 1.27337239,4.21646246 1.28190887,4.228818 C1.34629366,4.32202815 1.39380577,4.42304546 1.41392198,4.53621458 C1.41921587,4.5660853 1.42523689,4.59615965 1.42675945,4.62636976 C1.43284691,4.74442683 1.4076352,4.85610245 1.3475514,4.9567124 C1.27151948,5.08413791 1.16293161,5.17001613 1.02026428,5.20708293 C1.00398583,5.211292 0.986980252,5.21380395 0.970238577,5.21489009 C0.944894918,5.21651934 0.919484817,5.21699458 0.894074716,5.21651934 C0.731820836,5.21319286 0.61218196,5.136887 0.531716172,4.99330405 C0.500548955,4.93770371 0.484601784,4.87735138 0.477124647,4.81421568 C0.475866916,4.80348939 0.475138854,4.7924916 0.475933359,4.78169744 C0.482220143,4.69758413 0.50531411,4.61944519 0.557391108,4.55264343 C0.602520638,4.49473517 0.66154604,4.45821139 0.730563105,4.43811657 C0.738569912,4.43580835 0.747238338,4.43506161 0.755642865,4.43506161 C0.78555235,4.4349944 0.812550524,4.46106263 0.814800216,4.49208746 C0.815991504,4.50804108 0.810697616,4.52263696 0.799381778,4.53336324 C0.790250126,4.542053 0.779464893,4.54938483 0.768480333,4.55556274 C0.749951256,4.56601742 0.73029827,4.5743677 0.71177013,4.58482237 C0.675441911,4.60532456 0.647914067,4.63505943 0.63084205,4.67382354 C0.605828733,4.73064558 0.596168347,4.78875776 0.611453899,4.85128247 C0.642686622,4.97891171 0.738106685,5.07225761 0.873693668,5.09201295 C0.927292296,5.09982011 0.979303787,5.08868647 1.02952881,5.07042463 C1.11217785,5.04041816 1.17735715,4.98508952 1.22632445,4.91217792 C1.27132109,4.84510465 1.29666475,4.76981686 1.29931216,4.68658634 C1.3018922,4.60478134 1.28845955,4.52691392 1.26040297,4.45074371 C1.24452131,4.40756708 1.22149379,4.36866711 1.19747336,4.33044621 C1.15115255,4.25672008 1.09371522,4.19378782 1.02092589,4.14606272 C0.979436672,4.1188396 0.935233596,4.09881276 0.888714385,4.08374164 C0.844114524,4.0693493 0.797661756,4.06418984 0.751473823,4.05828363 C0.743135738,4.05719692 0.734533755,4.05712962 0.726130164,4.05753573 C0.634283031,4.06201642 0.545546536,4.07966726 0.463955902,4.12569523 C0.426701229,4.14674053 0.391564298,4.17063707 0.36172032,4.20213704 C0.345508314,4.21924487 0.329163423,4.23628462 0.312223356,4.25271348 C0.266896369,4.29670493 0.23427303,4.34972535 0.208466144,4.40743027 C0.177430877,4.47681166 0.153741734,4.54850118 0.14169877,4.62419633 C0.127538064,4.71285792 0.127538064,4.80131587 0.141296371,4.88997746 C0.160817408,5.0155023 0.199858546,5.13457773 0.257097483,5.24693212 C0.303219909,5.33749457 0.357281764,5.42296543 0.418756186,5.5036841 C0.451511475,5.54672517 0.487574859,5.58596443 0.525094367,5.62425302 C0.66015168,5.76213349 0.795076108,5.90008175 0.930331813,6.03775849 C0.94833122,6.05608821 0.968314548,6.07224546 0.986909131,6.08996418 C1.00391564,6.10618951 1.02250929,6.1213284 1.03666999,6.13992982 C1.10052606,6.22370336 1.16544146,6.30679822 1.21923941,6.39810742 C1.22142266,6.40184135 1.22400363,6.40530359 1.22612138,6.4091053 C1.26675059,6.48283153 1.30678462,6.55703309 1.33854701,6.63523991 C1.37944199,6.73591774 1.40650568,6.84053294 1.41841669,6.94935732 C1.42318091,6.99260193 1.42900447,7.03564291 1.42655638,7.07909105 C1.41914475,7.21242306 1.3967124,7.34215679 1.33590054,7.46225047 C1.3212766,7.49117081 1.3071159,7.52036256 1.29103584,7.5484003 C1.23968597,7.63780864 1.17027212,7.71031297 1.08762308,7.76917172 C1.04050869,7.8027084 0.988365254,7.82694423 0.935030525,7.84846477 C0.923317903,7.85321686 0.911870115,7.85878378 0.900488771,7.86421475 C0.898834255,7.86502986 0.896782955,7.86774486 0.896981348,7.86923846 C0.897580267,7.87317603 0.898371028,7.87921799 0.900885555,7.88043998 C0.914119807,7.88702506 0.927618894,7.8934066 0.941647651,7.89788729 C1.01324569,7.92090132 1.07756498,7.95810377 1.1370536,8.00413174 C1.18112379,8.03827942 1.21943781,8.07914803 1.25457474,8.12259627 C1.32438631,8.20908501 1.37401522,8.30684401 1.40266791,8.415329 C1.41709345,8.4699104 1.42834285,8.52551045 1.42748284,8.58226547 C1.42589383,8.6904106 1.40154306,8.79231041 1.34714993,8.88660641 C1.26675059,9.02591279 1.14790528,9.1094828 0.995709506,9.14240868 C0.88348226,9.16664393 0.776217626,9.14539548 0.678414985,9.08382087 C0.625676368,9.05055608 0.5833262,9.00452801 0.548916395,8.95143953 C0.511926557,8.89441377 0.49088389,8.83107453 0.47923771,8.76406875 C0.474737391,8.73820329 0.473612545,8.71227062 0.477583195,8.68626978 C0.485126775,8.63664334 0.498492977,8.58891785 0.520726932,8.54377306 C0.554475118,8.4752734 0.606552116,8.42605499 0.671797859,8.39075292 C0.69429665,8.37860121 0.718515462,8.37011508 0.744057513,8.36739998 C0.761394365,8.36556719 0.77813604,8.36801443 0.791833519,8.38016326 C0.826375273,8.41071198 0.816185217,8.45416032 0.788790259,8.47574864 C0.78223864,8.48097626 0.774099883,8.48416756 0.766423418,8.48783314 C0.752990774,8.49428199 0.73902846,8.49957778 0.7259926,8.50670636 C0.637057713,8.5555849 0.591928183,8.6619654 0.605030486,8.74689295 C0.625278648,8.87859552 0.695751837,8.96909057 0.822140724,9.0090087 C0.869586389,9.02401184 0.918752076,9.0232649 0.966924867,9.0149823 C1.08179952,8.99515957 1.16967601,8.93256631 1.23234078,8.83202501 C1.25761893,8.7914281 1.2766103,8.74852221 1.28779325,8.70140829 C1.30307881,8.63684687 1.30400526,8.57160668 1.29355037,8.50731697 C1.27978645,8.42327173 1.24947924,8.34479302 1.2042842,8.2721535 C1.16735987,8.21281875 1.12256162,8.16108868 1.07121268,8.11567171 C1.01278246,8.06400904 0.94436057,8.02952188 0.870049616,8.00813729 C0.799774819,7.98783864 0.727647115,7.98627727 0.655850688,7.99340546 C0.596626894,7.99931177 0.539321515,8.017302 0.485986786,8.04438936 C0.374817944,8.1008721 0.28899276,8.18491696 0.229437689,8.29747556 C0.181264899,8.38837768 0.151354478,8.48511708 0.13699538,8.58688153 C0.127863727,8.65157831 0.128856623,8.717023 0.136068926,8.78185516 C0.143282164,8.84662107 0.15744287,8.91023201 0.175242949,8.97289247 C0.187683633,9.01674789 0.202241123,9.05978915 0.222490222,9.10058959 C0.234003516,9.12380716 0.245385796,9.1470929 0.256237471,9.17071754 C0.294286649,9.25367694 0.34371717,9.32937142 0.396787065,9.40269067 C0.411940667,9.42360021 0.426961385,9.44464512 0.442974998,9.46487589 C0.46031185,9.48673591 0.477648702,9.50879947 0.496971346,9.52869037 C0.589545606,9.62414134 0.68278242,9.71891257 0.775819906,9.81388735 C0.783297979,9.82155933 0.790576724,9.82957022 0.798781923,9.83635894 C0.881695795,9.90438239 0.950646418,9.98740899 1.02760478,10.0618141 C1.06585235,10.1110335 1.10601834,10.1588262 1.14201621,10.2096738 C1.21182778,10.308247 1.27244126,10.4127265 1.32207017,10.5235877 C1.36468518,10.6188342 1.39684435,10.71768 1.41126989,10.8215479 C1.4192767,10.8793879 1.42854124,10.9375004 1.42688672,10.9964271 C1.421328,11.197239 1.36799421,11.3815548 1.24749438,11.5425177 C1.22691494,11.5700124 1.20792358,11.5987965 1.18105735,11.6209954 C1.13003876,11.6631544 1.08206436,11.7095895 1.02131894,11.7376949 C0.986644296,11.7537166 0.95190415,11.7697384 0.917428838,11.7863718 C0.914847869,11.787593 0.913987858,11.7934322 0.913325303,11.7973004 C0.913063275,11.7986589 0.915377538,11.8013068 0.917097561,11.8021209 C0.936353763,11.8109459 0.95534513,11.8208578 0.975196508,11.8279182 C1.04672904,11.8532403 1.10687928,11.8975719 1.1624637,11.9480797 C1.26767704,12.0437342 1.34139282,12.1617239 1.38572784,12.2984496 C1.42476898,12.41895 1.42748284,12.5413523 1.39909498,12.6647041 C1.39763886,12.6710185 1.39611723,12.6773992 1.39399948,12.6835091 C1.35416384,12.798851 1.29222713,12.897356 1.19263802,12.9686399 C1.13811201,13.0076066 1.08047629,13.0379527 1.01496571,13.0519372 C0.991938184,13.0568931 0.969042609,13.0610349 0.945551858,13.061441 C0.924376306,13.0617771 0.903201689,13.0619115 0.88209258,13.0621899 C0.789385435,13.0634111 0.708126078,13.0321154 0.635998374,12.972917 C0.555268686,12.9067264 0.500809111,12.8226811 0.48089129,12.7189485 C0.452437928,12.5707489 0.492207128,12.4439351 0.606088889,12.3447504 C0.640565136,12.3147441 0.681127904,12.2963461 0.723874857,12.2826333 C0.72791195,12.281343 0.732080992,12.2804607 0.736315541,12.2799854 C0.758814331,12.2774057 0.77853376,12.2829722 0.792628024,12.3021843 C0.807913576,12.3230267 0.810891329,12.3461761 0.799311592,12.36953 C0.794745766,12.3787621 0.787003794,12.3876553 0.778467318,12.3931546 C0.766093076,12.4011655 0.751733978,12.4058497 0.738234891,12.4121632 C0.679738223,12.4394544 0.636197702,12.4831735 0.613632469,12.5445446 C0.586171068,12.619086 0.589678491,12.6936946 0.627793175,12.7645695 C0.637984167,12.7835099 0.65068875,12.8010928 0.662269422,12.8192191 C0.67881177,12.8450164 0.700252157,12.8657224 0.725529373,12.8823548 C0.801891626,12.9325918 0.883217426,12.9521438 0.973608436,12.9305555 C1.0546694,12.911207 1.12368647,12.8723076 1.17980056,12.8098506 C1.22638527,12.7579843 1.26092703,12.698446 1.27654386,12.6292004 C1.28461711,12.5933559 1.28898454,12.5565609 1.29447682,12.5201048 C1.29573362,12.5116187 1.29553523,12.5027255 1.29486986,12.494104 C1.28428209,12.3608403 1.24252803,12.2387097 1.16133512,12.1340266 C1.10859556,12.0660704 1.04785014,12.0053109 0.970097269,11.9655281 C0.92417417,11.9419717 0.876265279,11.9257463 0.826041189,11.9165133 C0.798976572,11.9114901 0.771515171,11.9089104 0.744252162,11.9055156 C0.737966313,11.9046995 0.731547579,11.9043615 0.725260795,11.9047667 C0.627260698,11.9110802 0.532104534,11.927509 0.445419339,11.9795107 C0.38248973,12.017189 0.325913348,12.062809 0.281908664,12.1219393 C0.21170031,12.2162362 0.161475284,12.3215981 0.139109379,12.438502 C0.12898483,12.4914541 0.120779631,12.5451532 0.120581238,12.5999382 C0.120384718,12.6590684 0.12885288,12.7171138 0.13996939,12.7743431 C0.167100449,12.9139884 0.219309397,13.0439254 0.290113863,13.1665994 C0.336633074,13.2472498 0.39043103,13.3223346 0.446147401,13.3961963 C0.456470342,13.4099091 0.468314914,13.4224688 0.48029237,13.4347559 C0.57465403,13.5314281 0.669213147,13.6279649 0.763706756,13.7244345 C0.771184829,13.7321056 0.778463574,13.7401165 0.786735216,13.746837 C0.871302668,13.8162862 0.941709414,13.9008748 1.01999102,13.9769773 C1.07967804,14.0502956 1.13982922,14.1232078 1.18939169,14.2044698 C1.25351259,14.3096953 1.31094992,14.4185202 1.35243914,14.5352205 C1.39108443,14.6437737 1.4180826,14.7553137 1.41589842,14.8722838 C1.41550538,14.8940075 1.4152995,14.9157312 1.415992,14.9374568 C1.41956493,15.0664424 1.38581768,15.1863331 1.33268134,15.3017431 C1.30270542,15.3667798 1.2684285,15.428964 1.22336541,15.4844287 C1.2125128,15.4977344 1.2022563,15.5117871 1.1899485,15.5235999 C1.10405688,15.6062204 1.00896809,15.6735651 0.894158939,15.7072369 C0.882182418,15.7107681 0.862350691,15.7203449 0.862350691,15.7203449 L0.850511735,15.7248524 Z" id="path4489"></path>
                                </g>
                            </g>
                        </g>
                    </g>
                </g>
                <g id="overlay" mask="url(#mask-2)">
                    <use fill="url(#linearGradient-6)" fill-rule="evenodd" style="mix-blend-mode: overlay;" xlink:href="#path-7"></use>
                    <rect stroke-opacity="0.1" stroke="#000000" stroke-width="1" stroke-linejoin="square" x="0.5" y="0.5" width="19" height="14" rx="2"></rect>
                </g>
            </g>
        </g>
    </g>
</svg>