<?xml version="1.0" encoding="UTF-8"?>
<svg width="38px" height="30px" viewBox="0 0 38 30" version="1.1" xmlns="http://www.w3.org/2000/svg" xmlns:xlink="http://www.w3.org/1999/xlink">
    <!-- Generator: Sketch 62 (91390) - https://sketch.com -->
    <title>MISSING L</title>
    <desc>Created with Sketch.</desc>
    <defs>
        <rect id="path-1" x="0" y="0" width="32" height="24" rx="2"></rect>
        <filter x="-17.2%" y="-14.6%" width="134.4%" height="145.8%" filterUnits="objectBoundingBox" id="filter-3">
            <feOffset dx="0" dy="2" in="SourceAlpha" result="shadowOffsetOuter1"></feOffset>
            <feGaussianBlur stdDeviation="1.5" in="shadowOffsetOuter1" result="shadowBlurOuter1"></feGaussianBlur>
            <feColorMatrix values="0 0 0 0 0   0 0 0 0 0   0 0 0 0 0  0 0 0 0.1 0" type="matrix" in="shadowBlurOuter1"></feColorMatrix>
        </filter>
        <linearGradient x1="50%" y1="100%" x2="50%" y2="0%" id="linearGradient-4">
            <stop stop-color="#000000" stop-opacity="0.3" offset="2.42052023%"></stop>
            <stop stop-color="#FFFFFF" stop-opacity="0.7" offset="100%"></stop>
        </linearGradient>
        <rect id="path-5" x="0" y="0" width="32" height="24" rx="2"></rect>
    </defs>
    <g id="Page-1" stroke="none" stroke-width="1" fill="none" fill-rule="evenodd">
        <g id="Desktop-HD" transform="translate(-606.000000, -474.000000)">
            <g id="MISSING-L" transform="translate(609.000000, 475.000000)">
                <mask id="mask-2" fill="white">
                    <use xlink:href="#path-1"></use>
                </mask>
                <g id="drop-shadow" fill="black" fill-opacity="1">
                    <use filter="url(#filter-3)" xlink:href="#path-1"></use>
                </g>
                <rect id="Rectangle" fill="#FFFFFF" mask="url(#mask-2)" x="0" y="0" width="32" height="24" rx="2"></rect>
                <g id="Group" opacity="0.5" mask="url(#mask-2)">
                    <g transform="translate(6.000000, 2.000000)">
                        <circle id="Oval" fill="#F5F5F5" fill-rule="evenodd" style="mix-blend-mode: normal;" cx="10" cy="10" r="10"></circle>
                        <path d="M9.94622656,12.4370117 C10.4540391,12.4370117 10.7523789,12.1450195 10.8095078,11.6816406 C10.8158555,11.6245117 10.8222031,11.5610352 10.8222031,11.5039062 C10.879332,10.7929688 11.1649766,10.4755859 12.2123398,9.80273438 C13.3485703,9.07275391 13.9833359,8.24121094 13.9833359,7.02880859 C13.9833359,5.08642578 12.4027695,3.92480469 10.2572617,3.92480469 C8.664,3.92480469 7.35638281,4.61035156 6.81048437,5.75927734 C6.66448828,6.05761719 6.59466406,6.36230469 6.59466406,6.64160156 C6.59466406,7.14941406 6.91839453,7.49853516 7.46429297,7.49853516 C7.88323828,7.49853516 8.20696875,7.27001953 8.3593125,6.88916016 C8.65765234,5.91796875 9.31146094,5.53710938 10.1683945,5.53710938 C11.1967148,5.53710938 11.9965195,6.13378906 11.9965195,7.05419922 C11.9965195,7.87939453 11.5331406,8.31738281 10.6063828,8.92041016 C9.66692969,9.53613281 9.02581641,10.215332 9.02581641,11.230957 L9.02581641,11.5166016 C9.02581641,12.0625 9.3749375,12.4370117 9.94622656,12.4370117 Z M9.96526953,16.0297852 C10.6127305,16.0297852 11.1332383,15.5219727 11.1332383,14.8935547 C11.1332383,14.2651367 10.6127305,13.7636719 9.96526953,13.7636719 C9.31780859,13.7636719 8.79730078,14.2651367 8.79730078,14.8935547 C8.79730078,15.5219727 9.31780859,16.0297852 9.96526953,16.0297852 Z" id="1" fill="#4D4D4D" fill-rule="nonzero" style="mix-blend-mode: normal;"></path>
                    </g>
                </g>
                <g id="overlay" mask="url(#mask-2)">
                    <use fill="url(#linearGradient-4)" fill-rule="evenodd" style="mix-blend-mode: overlay;" xlink:href="#path-5"></use>
                    <rect stroke-opacity="0.1" stroke="#000000" stroke-width="1" stroke-linejoin="square" x="0.5" y="0.5" width="31" height="23" rx="2"></rect>
                </g>
            </g>
        </g>
    </g>
</svg>