<?xml version="1.0" encoding="UTF-8"?>
<svg width="26px" height="21px" viewBox="0 0 26 21" version="1.1" xmlns="http://www.w3.org/2000/svg" xmlns:xlink="http://www.w3.org/1999/xlink">
    <!-- Generator: Sketch 62 (91390) - https://sketch.com -->
    <title>MISSING -M</title>
    <desc>Created with Sketch.</desc>
    <defs>
        <rect id="path-1" x="0" y="0" width="20" height="15" rx="2"></rect>
        <filter x="-27.5%" y="-23.3%" width="155.0%" height="173.3%" filterUnits="objectBoundingBox" id="filter-3">
            <feOffset dx="0" dy="2" in="SourceAlpha" result="shadowOffsetOuter1"></feOffset>
            <feGaussianBlur stdDeviation="1.5" in="shadowOffsetOuter1" result="shadowBlurOuter1"></feGaussianBlur>
            <feColorMatrix values="0 0 0 0 0   0 0 0 0 0   0 0 0 0 0  0 0 0 0.1 0" type="matrix" in="shadowBlurOuter1"></feColorMatrix>
        </filter>
        <linearGradient x1="50%" y1="100%" x2="50%" y2="0%" id="linearGradient-4">
            <stop stop-color="#000000" stop-opacity="0.3" offset="2.42052023%"></stop>
            <stop stop-color="#FFFFFF" stop-opacity="0.7" offset="100%"></stop>
        </linearGradient>
        <rect id="path-5" x="0" y="0" width="20" height="15" rx="2"></rect>
    </defs>
    <g id="Page-1" stroke="none" stroke-width="1" fill="none" fill-rule="evenodd">
        <g id="Desktop-HD" transform="translate(-606.000000, -511.000000)">
            <g id="MISSING--M" transform="translate(609.000000, 512.000000)">
                <mask id="mask-2" fill="white">
                    <use xlink:href="#path-1"></use>
                </mask>
                <g id="drop-shadow" fill="black" fill-opacity="1">
                    <use filter="url(#filter-3)" xlink:href="#path-1"></use>
                </g>
                <rect id="Rectangle" fill="#FFFFFF" mask="url(#mask-2)" x="0" y="0" width="20" height="15" rx="2"></rect>
                <g id="Group" opacity="0.5" mask="url(#mask-2)">
                    <g transform="translate(5.000000, 3.000000)">
                        <circle id="Oval" fill="#F5F5F5" fill-rule="evenodd" style="mix-blend-mode: normal;" cx="5" cy="5" r="5"></circle>
                        <path d="M5.17851562,6.53293457 C5.50859375,6.53293457 5.70251465,6.34313965 5.73964844,6.04194336 C5.74377441,6.00480957 5.74790039,5.9635498 5.74790039,5.92641602 C5.78503418,5.46430664 5.97070312,5.25800781 6.65148926,4.8206543 C7.39003906,4.34616699 7.80263672,3.80566406 7.80263672,3.01760254 C7.80263672,1.75505371 6.77526855,1 5.38068848,1 C4.34506836,1 3.49511719,1.44560547 3.1402832,2.19240723 C3.04538574,2.38632813 3,2.584375 3,2.76591797 C3,3.09599609 3.2104248,3.3229248 3.56525879,3.3229248 C3.83757324,3.3229248 4.04799805,3.17438965 4.14702148,2.92683105 C4.34094238,2.29555664 4.76591797,2.04799805 5.3229248,2.04799805 C5.99133301,2.04799805 6.51120605,2.43583984 6.51120605,3.03410645 C6.51120605,3.5704834 6.21000977,3.85517578 5.60761719,4.24714355 C4.99697266,4.64736328 4.58024902,5.08884277 4.58024902,5.74899902 L4.58024902,5.93466797 C4.58024902,6.28950195 4.80717773,6.53293457 5.17851562,6.53293457 Z M5.19089355,8.8682373 C5.61174316,8.8682373 5.95007324,8.53815918 5.95007324,8.1296875 C5.95007324,7.72121582 5.61174316,7.39526367 5.19089355,7.39526367 C4.77004395,7.39526367 4.43171387,7.72121582 4.43171387,8.1296875 C4.43171387,8.53815918 4.77004395,8.8682373 5.19089355,8.8682373 Z" id="1" fill="#4D4D4D" fill-rule="nonzero" style="mix-blend-mode: normal;"></path>
                    </g>
                </g>
                <g id="overlay" mask="url(#mask-2)">
                    <use fill="url(#linearGradient-4)" fill-rule="evenodd" style="mix-blend-mode: overlay;" xlink:href="#path-5"></use>
                    <rect stroke-opacity="0.1" stroke="#000000" stroke-width="1" stroke-linejoin="square" x="0.5" y="0.5" width="19" height="14" rx="2"></rect>
                </g>
            </g>
        </g>
    </g>
</svg>