<?xml version="1.0" encoding="UTF-8"?>
<svg width="38px" height="30px" viewBox="0 0 38 30" version="1.1" xmlns="http://www.w3.org/2000/svg" xmlns:xlink="http://www.w3.org/1999/xlink">
    <!-- Generator: Sketch 62 (91390) - https://sketch.com -->
    <title>Chechen- L</title>
    <desc>Created with Sketch.</desc>
    <defs>
        <rect id="path-1" x="0" y="0" width="32" height="24" rx="2"></rect>
        <filter x="-17.2%" y="-14.6%" width="134.4%" height="145.8%" filterUnits="objectBoundingBox" id="filter-3">
            <feOffset dx="0" dy="2" in="SourceAlpha" result="shadowOffsetOuter1"></feOffset>
            <feGaussianBlur stdDeviation="1.5" in="shadowOffsetOuter1" result="shadowBlurOuter1"></feGaussianBlur>
            <feColorMatrix values="0 0 0 0 0   0 0 0 0 0   0 0 0 0 0  0 0 0 0.1 0" type="matrix" in="shadowBlurOuter1"></feColorMatrix>
        </filter>
        <rect id="path-4" x="0" y="0" width="32" height="24" rx="2"></rect>
        <linearGradient x1="50%" y1="100%" x2="50%" y2="0%" id="linearGradient-6">
            <stop stop-color="#000000" stop-opacity="0.3" offset="2.42052023%"></stop>
            <stop stop-color="#FFFFFF" stop-opacity="0.7" offset="100%"></stop>
        </linearGradient>
        <rect id="path-7" x="0" y="0" width="32" height="24" rx="2"></rect>
    </defs>
    <g id="Page-1" stroke="none" stroke-width="1" fill="none" fill-rule="evenodd">
        <g id="Desktop-HD" transform="translate(-490.000000, -474.000000)">
            <g id="Chechen--L" transform="translate(493.000000, 475.000000)">
                <mask id="mask-2" fill="white">
                    <use xlink:href="#path-1"></use>
                </mask>
                <g id="drop-shadow" fill="black" fill-opacity="1">
                    <use filter="url(#filter-3)" xlink:href="#path-1"></use>
                </g>
                <g id="chechen" mask="url(#mask-2)">
                    <mask id="mask-5" fill="white">
                        <use xlink:href="#path-4"></use>
                    </mask>
                    <use id="Mask" fill="#D8D8D8" xlink:href="#path-4"></use>
                    <g mask="url(#mask-5)">
                        <g transform="translate(0.000000, -1.500000)">
                            <g id="g4557" transform="translate(0.000000, 0.500000)">
                                <g id="g4555" fill-rule="nonzero">
                                    <path d="M0,25.9911971 C0,17.3274647 0,8.66373237 0,0 C12.3300997,0 24.6601995,0 36.9902992,0 C36.9902992,8.66373237 36.9902992,17.3274647 36.9902992,25.9911971 C24.6601995,25.9911971 12.3300997,25.9911971 0,25.9911971 Z M20.2131348,0.58831052 C14.692448,0.58831052 9.17186663,0.58831052 3.65117982,0.58831052 C3.61406384,0.58831052 3.57694785,0.58831052 3.5399373,0.58853688 C3.52644058,0.588641677 3.5130493,0.589584845 3.49955258,0.590632809 C3.48289256,0.591890367 3.46834141,0.606247481 3.46781419,0.623958081 C3.46644343,0.667448609 3.46527184,0.711043934 3.46527184,0.754639258 C3.46527184,5.45507457 3.46527184,10.1556147 3.46527184,14.85605 C3.46527184,14.8895848 3.46527184,14.9231197 3.46527184,14.9566546 C3.46581077,14.9699637 3.46739242,14.9833777 3.46865774,14.9966868 C3.47013394,15.0118823 3.48595041,15.0283353 3.5022941,15.0288593 C3.55280137,15.0307457 3.60330863,15.0326655 3.6538159,15.0326655 C14.6849615,15.0326655 25.7162126,15.0326655 36.7473582,15.0326655 C36.7844742,15.0326655 36.8215902,15.0328416 36.8586007,15.0322128 C36.8753662,15.0318984 36.8922371,15.0303265 36.9090026,15.0285449 C36.9245027,15.0268682 36.939792,15.0108343 36.9403192,14.9940669 C36.9416899,14.9505764 36.9431134,14.9069811 36.9431134,14.8634905 C36.9431134,10.1597017 36.9431134,5.45580814 36.9431134,0.752019347 C36.9431134,0.721837969 36.9431134,0.69165659 36.9431134,0.661475212 C36.9426389,0.648166062 36.9414791,0.634752116 36.9402137,0.621442967 C36.9386321,0.604989923 36.9236592,0.590423216 36.9065774,0.590004031 C36.862713,0.589060863 36.8189541,0.58831052 36.7750898,0.58831052 C31.254403,0.58831052 25.7338216,0.58831052 20.2131348,0.58831052 Z M20.2038558,25.0512777 C25.7075663,25.0512777 31.2113822,25.0512777 36.7150926,25.0512777 C36.7555828,25.0512777 36.796073,25.0514873 36.8364577,25.0511729 C36.8567028,25.0510681 36.8769478,25.0504393 36.8970875,25.0491818 C36.9252408,25.0472954 36.9409518,25.0319952 36.9417954,25.0052721 C36.9430021,24.9717372 36.9430021,24.9382023 36.9430021,24.9046675 C36.9430021,24.4621121 36.9430021,24.0195566 36.9430021,23.5770012 C36.9430021,21.521838 36.9430021,19.4666747 36.9430021,17.4114067 C36.9430021,17.3745183 36.9430021,17.33763 36.9422172,17.3007416 C36.9413736,17.2659492 36.9270333,17.2503345 36.8942405,17.2491818 C36.85723,17.2478194 36.820114,17.2477146 36.782998,17.2477146 C25.7316073,17.247636 14.680322,17.247636 3.62893132,17.2477146 C3.59856369,17.2477146 3.56819607,17.2474002 3.53793388,17.2481338 C3.5245426,17.2484482 3.51125677,17.2506489 3.49797093,17.2524305 C3.48679396,17.2538976 3.47139926,17.2681499 3.47087204,17.2790488 C3.46886862,17.319081 3.4661271,17.3592181 3.4661271,17.3992503 C3.4661271,19.9003225 3.4661271,22.4013946 3.4661271,24.9025715 C3.4661271,24.9327529 3.4661271,24.9629343 3.46697065,24.9931157 C3.46718153,25.0030713 3.46749786,25.0139702 3.47161015,25.0226683 C3.47551154,25.0309472 3.48331433,25.0397501 3.4915389,25.0431036 C3.50355942,25.048029 3.51747791,25.0501249 3.53076375,25.0504393 C3.5746281,25.0514873 3.618387,25.0513854 3.66225135,25.0513854 C9.17608435,25.0512777 14.6899174,25.0512777 20.2038558,25.0512777 L20.2038558,25.0512777 Z" id="path4549" fill="#FFFFFF"></path>
                                    <path d="M20.2131348,0.58831052 C25.7338216,0.58831052 31.254403,0.58831052 36.7750898,0.58831052 C36.8189541,0.58831052 36.862713,0.589060863 36.9065774,0.590004031 C36.9236592,0.590423216 36.9386321,0.604989923 36.9402137,0.621442967 C36.9414791,0.634752116 36.9426389,0.648166062 36.9431134,0.661475212 C36.9431134,0.69165659 36.9431134,0.721837969 36.9431134,0.752019347 C36.9431134,5.45580814 36.9431134,10.1597017 36.9431134,14.8634905 C36.9431134,14.9069811 36.9417954,14.9505764 36.9403192,14.9940669 C36.939792,15.0108343 36.9246082,15.0268682 36.9090026,15.0285449 C36.8922371,15.0303265 36.8754716,15.0318984 36.8586007,15.0322128 C36.8214848,15.0328416 36.7843688,15.0326655 36.7473582,15.0326655 C25.7162126,15.0326655 14.6849615,15.0326655 3.6538159,15.0326655 C3.60330863,15.0326655 3.55280137,15.0307457 3.5022941,15.0288593 C3.48605586,15.0282306 3.47023938,15.0118823 3.46865774,14.9966868 C3.46728698,14.9833777 3.46581077,14.9700685 3.46559989,14.9566546 C3.4652419,14.9231197 3.4652419,14.8895848 3.4652419,14.85605 C3.4652419,10.1556147 3.4652419,5.45507457 3.4652419,0.754639258 C3.4652419,0.711043934 3.46644343,0.667553406 3.46781419,0.623958081 C3.46834141,0.606352277 3.48299801,0.591995163 3.49955258,0.590632809 C3.51294386,0.589584845 3.52644058,0.588641677 3.5399373,0.58853688 C3.57705329,0.58831052 3.61416928,0.58831052 3.65117982,0.58831052 C9.17186663,0.58831052 14.6925534,0.58831052 20.2131348,0.58831052 Z" id="path4551" fill="#2B7338"></path>
                                    <path d="M20.2038558,25.0512806 C14.6900228,25.0512806 9.17608435,25.0512806 3.66225135,25.0512806 C3.618387,25.0512806 3.57452266,25.0513825 3.53076375,25.0503345 C3.51758336,25.0500202 3.50366486,25.0479242 3.4915389,25.0429988 C3.48331433,25.0396453 3.47551154,25.0308424 3.47161015,25.0225635 C3.46749786,25.0138654 3.46718153,25.0029665 3.46697065,24.9930109 C3.4661271,24.9628295 3.4661271,24.9326481 3.4661271,24.9024667 C3.4661271,22.4013946 3.4661271,19.9003225 3.4661271,17.3991455 C3.4661271,17.3590085 3.46886862,17.3189762 3.47087204,17.278944 C3.47139926,17.2680451 3.48679396,17.2538976 3.49797093,17.2523257 C3.51125677,17.2505441 3.52464805,17.2483434 3.53793388,17.248029 C3.56830151,17.2472954 3.59866914,17.2475429 3.62893132,17.2475429 C14.680322,17.2475429 25.7316073,17.2475429 36.782998,17.2475429 C36.820114,17.2475429 36.85723,17.2477146 36.8942405,17.249077 C36.9270333,17.2502297 36.9413736,17.2658444 36.9422172,17.3006368 C36.9429752,17.3375252 36.9429752,17.3744135 36.9429752,17.4113019 C36.9429752,19.4664651 36.9429752,21.5216284 36.9429752,23.5768964 C36.9429752,24.0194518 36.9429752,24.4620073 36.9429752,24.9045627 C36.9429752,24.9380975 36.9429752,24.9716324 36.9417954,25.0051673 C36.9409518,25.0318904 36.9251354,25.0472954 36.8970875,25.049077 C36.8769478,25.0504393 36.8567028,25.0509633 36.8364577,25.0510681 C36.7959675,25.0513825 36.7554773,25.0511729 36.7150926,25.0511729 C31.2112767,25.0512806 25.7075663,25.0512806 20.2038558,25.0512806 L20.2038558,25.0512806 Z" id="path4553" fill="#DA251D"></path>
                                </g>
                            </g>
                            <g id="g4493" transform="translate(0.000000, 0.500000)">
                                <g id="g4491" transform="translate(0.007218, 0.027631)" fill="#FFCC00" fill-rule="nonzero">
                                    <path d="M1.36081878,25.1597639 L1.33640232,25.1654583 L1.30896581,25.172334 L1.27004801,25.1799885 L1.21033722,25.1854587 L1.1422206,25.188961 L1.08186597,25.1875017 L0.953342305,25.1715644 L0.886603193,25.1566625 C0.886603193,25.1566625 0.877391809,25.1625289 0.886603193,25.1566625 C0.89454337,25.1515595 0.872627404,25.16383 0.886603193,25.1566625 C0.858970539,25.1487345 0.836735647,25.1433028 0.815137108,25.1360246 C0.789410515,25.1274454 0.763999852,25.1175589 0.738695498,25.1077845 C0.716568412,25.0992037 0.694333521,25.0905139 0.67263017,25.0807364 C0.575647114,25.0371796 0.488194366,24.9785242 0.410164122,24.9052065 C0.392695134,24.8888037 0.376495855,24.8708833 0.359026866,24.8545881 C0.265116268,24.7668247 0.200108033,24.6566814 0.133195235,24.5478439 C0.0574947875,24.3831759 -0.00317277676,24.2149226 0.0021216728,24.0283126 C0.00445147018,23.9448902 0.00349918796,23.8615769 0.0249899217,23.7800041 C0.0790933268,23.5755812 0.181897882,23.4055874 0.350028099,23.2780691 C0.43599852,23.2127884 0.528745718,23.1624972 0.632078819,23.1401189 C0.772363765,23.1097052 0.913707301,23.1085131 1.05356851,23.1520684 C1.15372734,23.1832425 1.23821543,23.2413557 1.31021007,23.3151081 C1.3822047,23.3888621 1.43641291,23.4774965 1.47368219,23.5765597 C1.5113737,23.6764892 1.52174848,23.7794618 1.50967875,23.8839552 C1.49623301,24.000289 1.45081244,24.1038039 1.37606427,24.1939591 C1.30798658,24.2759682 1.22085126,24.3268016 1.12482198,24.3646026 C1.11539948,24.3682939 1.10534212,24.370466 1.09538957,24.3723124 C1.03980534,24.3829593 0.985384506,24.3445055 0.975750883,24.2865045 C0.969397843,24.2481612 0.986125669,24.2182898 1.01545327,24.1967809 C1.03175885,24.1848345 1.05060386,24.1753842 1.06966148,24.1690846 C1.13350482,24.1481211 1.18072514,24.1043477 1.22498081,24.0555757 C1.26796527,24.0081094 1.29221103,23.9515171 1.30226989,23.888516 C1.31158608,23.8298606 1.30978633,23.770772 1.3036474,23.7117925 C1.30289875,23.704949 1.30226989,23.6977784 1.30015421,23.6912621 C1.25208641,23.5435391 1.17109152,23.4256846 1.02635959,23.3610552 C0.875699861,23.293819 0.727898474,23.30783 0.583590286,23.3757175 C0.450610662,23.4382838 0.34960586,23.5366957 0.27983322,23.6712756 C0.224037867,23.7790256 0.207310042,23.8941658 0.197781231,24.0123461 C0.205508791,24.0847943 0.209532034,24.1578955 0.228272229,24.2286079 C0.26247054,24.3572154 0.313501488,24.4778918 0.394285265,24.5833637 C0.467762223,24.6792763 0.548650812,24.7682348 0.649444494,24.8349272 C0.77469506,24.9176967 0.91127419,24.9639709 1.0617228,24.9619064 C1.09899058,24.9650923 1.13625835,24.963739 1.17342131,24.9619064 C1.33869169,24.9636468 1.48532968,24.9049899 1.6206376,24.8132049 C1.73561819,24.7352143 1.82201235,24.6300711 1.89496076,24.5102626 C1.9717198,24.3842619 2.01819895,24.2470721 2.04763286,24.1040205 C2.06711422,24.009303 2.0821486,23.9121969 2.07484328,23.8143288 C2.06975995,23.7451371 2.06436069,23.6755107 2.05144498,23.6075157 C2.0281515,23.4846656 1.99469585,23.3647495 1.94726291,23.2486338 C1.88416074,23.0940659 1.80750801,22.9475364 1.71613683,22.8091531 C1.62879039,22.6766362 1.53255,22.5513959 1.42042775,22.4391912 C1.28215517,22.3010259 1.14684575,22.1597101 1.00952546,22.0204588 C0.973422583,21.983853 0.935731073,21.9487694 0.897085784,21.9152051 C0.855583648,21.879143 0.815879768,21.8414511 0.782741545,21.7971339 C0.755743745,21.7609643 0.723980042,21.7303324 0.689146876,21.7021998 C0.665324848,21.6829737 0.641504317,21.6622283 0.622764122,21.6380052 C0.540710634,21.531991 0.454316477,21.4294532 0.381156947,21.3161624 C0.277928656,21.1562733 0.189098393,20.9888879 0.120385841,20.8104239 C0.0654364619,20.6674798 0.033356829,20.5182345 0.00858102105,20.3672519 C0.00688757579,20.2735129 0.00498151405,20.1796649 0.00349918796,20.0859244 C0.00222648374,20.0091304 0.0103807746,19.9332044 0.027744952,19.8585809 C0.0745415376,19.6570905 0.152041738,19.4700458 0.270940761,19.3011411 C0.39799108,19.1208308 0.565697562,18.9972203 0.765166248,18.9154278 C0.784011255,18.9077165 0.802645142,18.899787 0.821174218,18.8914228 C0.823821443,18.8902246 0.827103522,18.8853397 0.826573478,18.8832767 C0.824984844,18.8771936 0.822867663,18.8690476 0.818420685,18.8665498 C0.806668384,18.8600321 0.793752682,18.8553607 0.780941791,18.8512331 C0.679830682,18.8185382 0.587613528,18.7680305 0.501747918,18.7048128 C0.40466005,18.6333399 0.320913118,18.5480727 0.251883138,18.447925 C0.236213904,18.4252226 0.222131806,18.4014357 0.206145143,18.3789515 C0.125256555,18.2646822 0.0739066828,18.1362929 0.0403447238,18.000842 C0.0178987133,17.9100355 0.0017995821,17.8173826 0.00614641274,17.7226651 C0.0185335681,17.4526343 0.115727744,17.2213799 0.318161082,17.0459574 C0.485020092,16.9013835 0.680889272,16.8299122 0.901427951,16.8512014 C1.07633345,16.8681464 1.22582978,16.9417913 1.34483361,17.0783267 C1.41852169,17.1629426 1.47357737,17.256574 1.50057517,17.3670414 C1.52662069,17.4733812 1.53000908,17.5813493 1.50512846,17.6870377 C1.46658948,17.8504031 1.37267738,17.9740136 1.22942928,18.0569996 C1.19385495,18.0776375 1.15531597,18.0914319 1.11518986,18.0990357 C1.09888427,18.1021848 1.08141528,18.1018591 1.06479227,18.0999113 C1.02731337,18.0954565 0.99639714,18.0651503 0.987609492,18.0269162 C0.979245579,17.9904209 0.995762286,17.9462112 1.02784192,17.9275289 C1.05124021,17.9138435 1.07675718,17.9038495 1.10132037,17.8923347 C1.22148761,17.8362877 1.28998904,17.7382045 1.31868178,17.6086186 C1.32693939,17.5711448 1.32958661,17.5324759 1.32291615,17.4945659 C1.30841181,17.4120145 1.28628323,17.3320715 1.23440481,17.2642915 C1.20518352,17.2260558 1.17860946,17.1856511 1.14028159,17.155563 C1.07400365,17.1036405 0.998938057,17.0723588 0.91688457,17.0627995 C0.815033794,17.0508515 0.714451231,17.0573693 0.617152245,17.0972318 C0.562944029,17.119501 0.513182791,17.1483924 0.468292267,17.1855405 C0.333936626,17.2968773 0.246588689,17.4388445 0.220755788,17.6149182 C0.205615099,17.7179999 0.206779998,17.8221676 0.229860864,17.9255734 C0.265328884,18.0845946 0.334147745,18.2268889 0.432505322,18.3532122 C0.535628801,18.4857306 0.662679121,18.5876156 0.818315874,18.6498564 C0.872417782,18.6714712 0.928425751,18.6858094 0.985174884,18.6937404 C1.09623854,18.7093797 1.20708958,18.7103582 1.31825805,18.6859184 C1.47844809,18.6505077 1.6148146,18.5708888 1.73625305,18.4610743 C1.79268475,18.4101302 1.83577702,18.3474563 1.87823293,18.2846749 C1.93847526,18.1956042 1.98251981,18.0981709 2.01597547,17.9953073 C2.07251348,17.8212981 2.09347716,17.6425085 2.07526551,17.4606774 C2.05567935,17.2658107 2.00411835,17.0793098 1.92259341,16.9011715 C1.84742301,16.7369382 1.75711042,16.5821537 1.65303616,16.436059 C1.597133,16.3576352 1.53773814,16.2820348 1.46987156,16.2132778 C1.23609975,15.9764841 1.00380877,15.7381712 0.770882936,15.5004006 C0.761249314,15.4906247 0.752566477,15.4794371 0.741767956,15.4713985 C0.649761921,15.4032929 0.583272858,15.3105309 0.513712835,15.2212452 C0.414188862,15.0935072 0.32483155,14.9584925 0.252941729,14.8119631 C0.210273197,14.725066 0.168453633,14.6379524 0.133090424,14.5474715 C0.091269363,14.4405879 0.061306911,14.3303387 0.03780231,14.218134 C0.0314507673,14.1877203 0.0286972342,14.156328 0.0252040355,14.125372 C0.0224505025,14.1012579 0.0228742381,14.0766 0.0187461845,14.0527041 C-0.00729933304,13.8994403 0.00699388402,13.7478063 0.0381212347,13.5973659 C0.0721069293,13.4329145 0.131608098,13.2778043 0.215250219,13.1334469 C0.297514825,12.9913716 0.404237812,12.8722147 0.538910881,12.7788011 C0.6295394,12.7158011 0.725251249,12.6661615 0.828585848,12.6306426 C0.840866695,12.6264063 0.851984141,12.6183682 0.863312706,12.6115252 C0.864480599,12.6107648 0.864270977,12.6038132 0.862998273,12.6030529 C0.848387629,12.5949063 0.834199223,12.5854562 0.818636296,12.5800253 C0.754475533,12.5575407 0.691479668,12.5324495 0.631131029,12.5002978 C0.564641966,12.4648873 0.504398137,12.4215477 0.446484106,12.3724513 C0.324410809,12.2690454 0.230498713,12.1423935 0.152257349,12.0035762 C0.0945544372,11.9010385 0.0523111381,11.7906799 0.0315600701,11.6731522 C0.0219249505,11.6185161 0.00974891434,11.5634455 0.00816028001,11.5083748 C0.000537530371,11.2509439 0.0718973074,11.0218628 0.248604053,10.8329715 C0.269672549,10.8103785 0.291483705,10.7885457 0.31361079,10.7670389 C0.420227469,10.6637404 0.547701524,10.6013922 0.690844814,10.5766266 C0.784437985,10.5604423 0.879832407,10.5647871 0.974484168,10.5756481 C0.977872556,10.5760844 0.981154636,10.5768448 0.984436715,10.5776047 C1.15764877,10.6158391 1.29676881,10.7079492 1.39809104,10.8573026 C1.42498403,10.8969493 1.44954722,10.9396373 1.46775737,10.9841715 C1.55341037,11.1938096 1.54123433,11.3959526 1.42201938,11.5910352 C1.36135181,11.6903145 1.27104072,11.7478836 1.17289426,11.7970886 C1.15489523,11.8061041 1.1345679,11.8108836 1.11487542,11.81588 C1.07061975,11.8269593 1.03504542,11.8113179 1.00730496,11.775473 C0.973636697,11.7319162 0.983271817,11.6679386 1.0289035,11.6387196 C1.04595025,11.6278577 1.06543161,11.6207972 1.08353546,11.6115646 C1.10778122,11.5992905 1.13297927,11.5884283 1.15553158,11.5735472 C1.2824756,11.4901266 1.32789616,11.3656473 1.32344918,11.216837 C1.28236929,10.8835888 0.988566266,10.7207665 0.733194421,10.7743166 C0.613449424,10.7994078 0.511386032,10.8555648 0.419910042,10.9370301 C0.339445189,11.0087199 0.216099188,11.2211819 0.213982007,11.3791163 C0.213457952,11.413875 0.214131737,11.4486335 0.212814113,11.483392 C0.209214606,11.5789783 0.232612899,11.6691335 0.262681659,11.7583113 C0.311173188,11.9022334 0.392590323,12.0260609 0.491054208,12.1369627 C0.618210835,12.2800162 0.778505686,12.3664782 0.964317508,12.4013454 C0.99406884,12.4068852 1.02487727,12.4080797 1.05526345,12.4088401 C1.10269639,12.4100368 1.15012783,12.409493 1.19745446,12.409046 C1.31508228,12.4079599 1.42466211,12.3722237 1.52926792,12.3212807 C1.5747933,12.2991219 1.61756814,12.2691426 1.65737683,12.2372082 C1.76219375,12.1531358 1.85398717,12.0564635 1.91560702,11.933179 C1.95425081,11.8558409 1.99109485,11.7780688 2.01809414,11.6950824 C2.08500694,11.4893548 2.09675924,11.2805859 2.06033744,11.0677982 C2.02063506,10.8357844 1.93985128,10.6201724 1.82338837,10.4173776 C1.73191238,10.2582483 1.62794292,10.1086778 1.51243378,9.96725365 C1.49941028,9.9512864 1.48532968,9.93618798 1.47071903,9.92163304 C1.37839557,9.82984865 1.29369486,9.72980881 1.19131404,9.64877775 C1.17532738,9.63617799 1.16177532,9.62010198 1.1473758,9.60543829 C0.984116293,9.43881418 0.821702764,9.27121234 0.657384671,9.10578319 C0.596612296,9.0446299 0.542510388,8.97761076 0.492642842,8.90787621 C0.392485512,8.7678644 0.297727442,8.62350766 0.221496951,8.46785395 C0.135843957,8.29309392 0.0725306649,8.10963374 0.0372737634,7.91748369 C0.0153577967,7.79821817 -0.00126521773,7.67699763 0.0075224306,7.55490794 C0.0186398763,7.39849431 0.0440490418,7.24446997 0.0984698743,7.09696325 C0.128432326,7.01571483 0.161676858,6.93598718 0.204767628,6.86071306 C0.277822348,6.73297519 0.375227642,6.62685291 0.484385238,6.53278722 C0.559555641,6.46804938 0.642774027,6.41384782 0.736262387,6.37854598 C0.783906444,6.3606237 0.830809337,6.34074609 0.87792335,6.32141165 C0.880675386,6.32032561 0.884593818,6.31598068 0.884063774,6.31413395 C0.882686259,6.30837701 0.880781694,6.30001327 0.876652144,6.2981667 C0.82413887,6.27416597 0.769824346,6.25385394 0.71868709,6.22724165 C0.571944293,6.15055552 0.445211402,6.04899523 0.346747517,5.91126426 C0.268187228,5.80144883 0.198098658,5.68783164 0.152254355,5.55889883 C0.0967749317,5.40281101 0.0700945593,5.24194384 0.0887284464,5.07770934 C0.117738616,4.82179905 0.225731313,4.60814202 0.430281832,4.45009918 C0.518582051,4.38188539 0.616093654,4.33713361 0.721439126,4.30715429 C0.774377632,4.29205602 0.828796967,4.2903182 0.882581448,4.28901465 C0.967175852,4.28695056 1.05092278,4.29433702 1.13318889,4.32105776 C1.22911186,4.35223188 1.31084642,4.40589057 1.38538346,4.47258359 C1.4081469,4.49300438 1.42836793,4.51711816 1.44657958,4.54199217 C1.49782314,4.61183517 1.53625581,4.68917308 1.56695943,4.77053026 C1.5842173,4.81625947 1.59438096,4.86361821 1.59438096,4.91293166 C1.59438096,4.9407386 1.59565367,4.96854569 1.59500983,4.99635262 C1.5911992,5.18231101 1.51348638,5.33101268 1.37383629,5.44571606 C1.32079298,5.48938149 1.25811454,5.51751439 1.19204921,5.53597984 C1.18548505,5.53782626 1.17881459,5.53891261 1.17214412,5.53989036 C1.1260887,5.54651597 1.08183303,5.51903515 1.06817466,5.47536957 C1.05419887,5.43050934 1.07039815,5.37826266 1.10777224,5.35621281 C1.13117053,5.34241794 1.15647488,5.33209902 1.1813555,5.32123678 C1.23556372,5.29744911 1.27971308,5.26019209 1.31698235,5.21424551 C1.35456755,5.16797297 1.37817696,5.11550923 1.3880247,5.05533353 C1.41893943,4.86557308 1.35477867,4.71122339 1.21354144,4.59369569 C1.10364268,4.50234555 0.97182796,4.46943377 0.830908159,4.49495956 C0.591313354,4.53829902 0.427734927,4.68091794 0.332765738,4.90836968 C0.308626282,4.96615578 0.294439373,5.02730938 0.293274474,5.09052661 C0.292211392,5.15309207 0.291155796,5.21565767 0.293693718,5.27811452 C0.297080609,5.36240401 0.319420311,5.44278329 0.351818869,5.51979538 C0.415660707,5.67153858 0.502373789,5.80753142 0.62402335,5.91756437 C0.743663536,6.02575043 0.882464659,6.09852635 1.03969005,6.12264014 C1.17362195,6.14316937 1.30998996,6.14577633 1.44275697,6.10678149 C1.63079078,6.05160203 1.78653385,5.94721757 1.9057488,5.78624196 C2.00971825,5.64590403 2.08457273,5.49144543 2.1230054,5.31971601 C2.15032063,5.19751803 2.16599136,5.07325596 2.15667367,4.94758188 C2.15148552,4.87849911 2.14375647,4.80887317 2.12925213,4.74131116 C2.09844221,4.59858364 2.05513882,4.45954911 1.99246188,4.32768383 C1.94936961,4.23709408 1.9069137,4.14617852 1.85302291,4.06156307 C1.75847746,3.91318737 1.66022469,3.76850451 1.53560898,3.64326484 C1.27187472,3.37823043 1.01184478,3.10939441 0.749591343,2.84283938 C0.655468128,2.74714447 0.571827504,2.64265141 0.497396767,2.53033747 C0.426884461,2.42399814 0.359652737,2.31592053 0.303539957,2.20034801 C0.244461027,2.07869289 0.19353489,1.95421361 0.154573671,1.82430336 C0.110422813,1.67723091 0.0836361322,1.52755165 0.0856485022,1.37309304 C0.085962935,1.34876205 0.0858581241,1.32443106 0.0856485022,1.30010007 C0.0840598679,1.09111378 0.132233969,0.894184547 0.221169042,0.706922606 C0.264259813,0.616224252 0.312327605,0.529219203 0.37108761,0.447536367 C0.457481768,0.32751062 0.567274218,0.23681242 0.691042457,0.1628417 C0.815128124,0.0886537716 0.949166338,0.0412951894 1.09188589,0.0210917652 C1.11539049,0.0177244255 1.13847136,0.0115330734 1.16208227,0.00957789341 C1.19913743,0.00642791535 1.23682894,0.000888341127 1.27335704,0.00490730514 C1.44995598,0.0240245352 1.62009857,0.0667123756 1.77584014,0.158388166 C1.83184811,0.191408864 1.88542147,0.227470936 1.93115946,0.274938276 C1.94778248,0.29220893 1.96461661,0.30937098 1.98229672,0.32555544 C2.08478384,0.419403619 2.16154438,0.533346771 2.22612738,0.656414045 C2.29261794,0.783282922 2.33549759,0.917863915 2.34788475,1.06200345 C2.34851361,1.06895518 2.3486334,1.07590691 2.349683,1.08275004 C2.37107042,1.22363099 2.34809587,1.36005856 2.3038387,1.49246716 C2.25577241,1.63628088 2.17647095,1.76152055 2.06477244,1.86188604 C1.95360397,1.96181712 1.82750594,2.03535327 1.679176,2.06011883 C1.5816644,2.0764119 1.4829879,2.0789101 1.38590153,2.06011883 C1.25662772,2.03513606 1.14429435,1.97474285 1.04964259,1.87839647 C0.948001439,1.7749896 0.879395195,1.65474649 0.851549924,1.51017239 C0.804540722,1.26577581 0.893370985,1.00660694 1.13751908,0.863227633 C1.17605656,0.840634612 1.21745389,0.824884568 1.26149844,0.818693216 C1.30173086,0.813044884 1.33444685,0.828143304 1.35890373,0.861815626 C1.39204345,0.907544994 1.38166717,0.967394885 1.33423423,0.997700021 C1.31994101,1.00682414 1.30469551,1.01529664 1.28870885,1.0204018 C1.22486552,1.04071383 1.17669291,1.08307586 1.13169608,1.13152079 C1.0931571,1.17312243 1.06742901,1.22167581 1.05578302,1.27674651 C1.0297375,1.4002482 1.04022009,1.5201655 1.10861521,1.62780854 C1.17499797,1.73241021 1.26499313,1.80963951 1.38283207,1.84863435 C1.46170828,1.87481192 1.54047969,1.8768757 1.62306322,1.86188604 C1.78547526,1.83244989 1.91189072,1.74598786 2.01310664,1.61814124 C2.06678631,1.55036203 2.100772,1.46976554 2.12660491,1.38645349 C2.16228554,1.27153275 2.16588505,1.15498279 2.14407389,1.03636905 C2.1218405,0.915256957 2.07864342,0.802943172 2.01945968,0.696603686 C1.98737855,0.639034634 1.94968704,0.585701907 1.90310307,0.539320915 C1.87631639,0.512708777 1.84899967,0.486531209 1.82443797,0.457855441 C1.75297189,0.374543391 1.66107216,0.323708865 1.56324313,0.282541634 C1.50045839,0.256038254 1.43524053,0.236595058 1.36853885,0.223886542 C1.29135608,0.209222692 1.21321952,0.210634852 1.13582413,0.22117098 C0.999668739,0.23974519 0.873889627,0.289384764 0.755838075,0.360965735 C0.679079037,0.407564089 0.613859684,0.468282965 0.557534287,0.538126117 C0.411637464,0.71930531 0.323867289,0.927205245 0.294011145,1.16052252 C0.291363921,1.18116036 0.288399269,1.20179835 0.284799762,1.22232759 C0.273788624,1.28445863 0.272834845,1.34713268 0.279717928,1.40937232 C0.287658105,1.48171367 0.297821772,1.55416378 0.312327605,1.62552755 C0.350547662,1.81376708 0.41640187,1.99147048 0.507879357,2.15983255 C0.577333073,2.28767902 0.654622154,2.4097687 0.741227431,2.52577549 C0.774154535,2.56987549 0.80792911,2.61343247 0.843186012,2.65557729 C0.862984797,2.67914805 0.886170474,2.69978589 0.908510176,2.72096675 C0.948214056,2.75876695 0.989716192,2.79461151 1.02814886,2.83360635 C1.24477061,3.05367209 1.46022596,3.27482356 1.67695251,3.49467178 C1.75911231,3.57809243 1.83036578,3.67042 1.8987624,3.76557174 C1.95519261,3.84388708 2.00590763,3.92611309 2.05524513,4.00909917 C2.1347577,4.1430287 2.19912958,4.28456112 2.25037315,4.4323938 C2.2650901,4.47497334 2.27906589,4.51787839 2.29113562,4.56121801 C2.32649733,4.68863021 2.35243654,4.81756272 2.34788475,4.95127503 C2.34650723,4.99287668 2.34629611,5.03469569 2.34803448,5.07640578 C2.35502237,5.24661443 2.31616596,5.40802477 2.25412238,5.56356942 C2.19747956,5.70542811 2.1274958,5.84033507 2.03030162,5.95851424 C2.01939679,5.97176608 2.00923313,5.98599536 1.99684597,5.99772644 C1.88186538,6.10656444 1.76148553,6.2075814 1.61304779,6.26569363 C1.57514516,6.28046577 1.53575871,6.29111066 1.49700861,6.30338491 C1.48260908,6.3079469 1.47297546,6.31728823 1.47763356,6.32315392 C1.48356286,6.33075713 1.49012702,6.34020737 1.49838463,6.34313998 C1.559157,6.36529859 1.61823593,6.39136755 1.67477394,6.4230847 C1.78244772,6.48358652 1.88017044,6.55701422 1.95788326,6.65607631 C1.97270652,6.67497618 1.98985808,6.69202947 2.005421,6.71027787 C2.02098543,6.72852611 2.03739583,6.74633994 2.05105419,6.7661088 C2.15406986,6.91524503 2.23008923,7.07687273 2.26227518,7.25794332 C2.2707454,7.30573648 2.28037902,7.35385544 2.28281512,7.40219161 C2.29255505,7.59108292 2.25221632,7.76976391 2.15608223,7.93073984 C2.03443117,8.13462065 1.86069058,8.27202581 1.63242284,8.33133268 C1.60637732,8.33806721 1.5791684,8.34208633 1.55238172,8.34382414 C1.51183187,8.34643095 1.47117571,8.34719133 1.43051955,8.34643095 C1.17091334,8.34110858 0.979491137,8.2190192 0.850745875,7.98928648 C0.800878329,7.90032594 0.775362855,7.8037622 0.763399435,7.70274508 C0.761387065,7.68558303 0.760222167,7.66798656 0.761493374,7.65071591 C0.771552229,7.51613461 0.808502576,7.39111231 0.891825772,7.2842295 C0.964033021,7.19157627 1.05847366,7.13313823 1.16890097,7.10098652 C1.18171186,7.09729337 1.19558134,7.09609857 1.20902858,7.09609857 C1.25688376,7.09599104 1.30008084,7.13770022 1.30368035,7.18733994 C1.30558641,7.21286573 1.29711619,7.23621914 1.27901085,7.25338119 C1.2644002,7.26728481 1.24714383,7.27901573 1.22956853,7.28890039 C1.19992201,7.30562787 1.16847723,7.31898832 1.13883221,7.3357158 C1.08070706,7.36851929 1.03666251,7.41609508 1.00934728,7.47811767 C0.969325973,7.56903292 0.953869355,7.66201242 0.978326238,7.76205195 C1.02829859,7.96625873 1.1809707,8.11561218 1.39790987,8.14722072 C1.48366767,8.15971218 1.56688606,8.14189835 1.6472461,8.11267941 C1.77948456,8.06466905 1.88377144,7.97614324 1.96211911,7.85948468 C2.03411375,7.75216745 2.0746636,7.63170698 2.07889946,7.49853814 C2.08302751,7.36765015 2.06153528,7.24306227 2.01664476,7.12118994 C1.9912341,7.05210733 1.95439006,6.98986738 1.91595738,6.92871393 C1.84184407,6.81075212 1.74994435,6.71006051 1.63348143,6.63370035 C1.56709868,6.59014337 1.49637375,6.55810041 1.42194302,6.53398663 C1.35058324,6.51095888 1.27625881,6.50270375 1.20235812,6.49325381 C1.18901718,6.49151507 1.17525401,6.49140739 1.16180826,6.49205717 C1.01485285,6.49922627 0.872874458,6.52746762 0.742329443,6.60111237 C0.682721966,6.63478485 0.626502877,6.67301931 0.578752512,6.72341927 C0.552813303,6.75079179 0.526661477,6.77805539 0.499557369,6.80434157 C0.427034191,6.87472789 0.374836847,6.95956055 0.33354583,7.05188843 C0.283889404,7.16289866 0.245986775,7.27760188 0.226718033,7.39871413 C0.204060903,7.54057267 0.204060903,7.6821054 0.226074194,7.82396394 C0.257307853,8.02480369 0.319773674,8.21532436 0.411355972,8.3950914 C0.485151855,8.53999131 0.571650823,8.67674469 0.670009897,8.80589456 C0.722418359,8.87476027 0.780119774,8.93754309 0.840150986,8.99880483 C1.05624269,9.21941359 1.27212177,9.4401308 1.4885309,9.66041359 C1.51732995,9.68974114 1.54930328,9.71559274 1.57905461,9.7439427 C1.60626503,9.76990321 1.63601486,9.79412544 1.65867199,9.82388771 C1.76084169,9.95792538 1.86470633,10.0908772 1.95078306,10.2369719 C1.95427626,10.2429462 1.95840581,10.2484857 1.9617942,10.2545685 C2.02680094,10.3725304 2.09085539,10.4912529 2.14167522,10.6163839 C2.20710719,10.7774684 2.25040908,10.9448527 2.2694667,11.1189717 C2.27708945,11.1881631 2.28640714,11.2570287 2.28249021,11.3265457 C2.2706316,11.5398769 2.23473985,11.7474509 2.13744086,11.9396008 C2.11404257,11.9858733 2.09138544,12.0325801 2.06565735,12.0774405 C1.98349755,12.2204938 1.87243539,12.3365008 1.74019693,12.4306747 C1.66481391,12.4843334 1.58138441,12.5231108 1.49604884,12.5575436 C1.47730864,12.565147 1.45899218,12.5740541 1.44078203,12.5827436 C1.43813481,12.5840478 1.43485273,12.5883918 1.43517016,12.5907815 C1.43612843,12.5970816 1.43739365,12.6067488 1.44141689,12.608704 C1.46259169,12.6192401 1.48419023,12.6294506 1.50663624,12.6366197 C1.6211931,12.6734421 1.72410396,12.732966 1.81928577,12.8066108 C1.88979807,12.8612471 1.95110049,12.9266368 2.00731958,12.996154 C2.11901809,13.134536 2.19842435,13.2909504 2.24426866,13.4645264 C2.26734952,13.5518566 2.28534855,13.6408167 2.28397254,13.7316248 C2.28143012,13.904657 2.2424689,14.0676967 2.15543989,14.2185703 C2.02680094,14.4414605 1.83664845,14.5751725 1.59313521,14.6278539 C1.41357162,14.6666303 1.2419482,14.6326328 1.08546398,14.5341134 C1.00108219,14.4808897 0.933321919,14.4072448 0.878266232,14.3223032 C0.819082491,14.231062 0.785414224,14.1297192 0.766780337,14.02251 C0.759579825,13.9811253 0.757780072,13.939633 0.764133112,13.8980316 C0.77620284,13.8186293 0.797588763,13.7422686 0.833163092,13.6700369 C0.887160188,13.5604374 0.970483385,13.481688 1.07487657,13.4252047 C1.11087464,13.4057619 1.14962474,13.3921841 1.19049202,13.38784 C1.21823098,13.3849075 1.24501766,13.3888231 1.26693363,13.4082612 C1.32220044,13.4571392 1.30589635,13.5266565 1.26206441,13.5611978 C1.25158182,13.569562 1.23855981,13.5746681 1.22627747,13.580533 C1.20478524,13.5908512 1.18244554,13.5993244 1.16158816,13.6107302 C1.01929234,13.6889358 0.947085092,13.8591446 0.968048777,13.9950287 C1.00044584,14.2057528 1.11320294,14.3505449 1.31542516,14.4144139 C1.39133822,14.4384189 1.47000332,14.4372238 1.54707979,14.4239717 C1.73087924,14.3922553 1.87148161,14.2921061 1.97174525,14.13124 C2.01219029,14.066285 2.04257648,13.9976355 2.0604692,13.9222533 C2.08492609,13.818955 2.08640841,13.7145707 2.06968059,13.6117071 C2.04765831,13.4772348 1.99916679,13.3516688 1.92685473,13.2354456 C1.8677758,13.14051 1.79609859,13.0577419 1.71394029,12.9850747 C1.62045193,12.9024145 1.51097691,12.847235 1.39207939,12.8130197 C1.27963971,12.7805418 1.16423538,12.7780436 1.0493611,12.7894487 C0.954603031,12.7988988 0.862914424,12.8276832 0.777578858,12.871023 C0.59970871,12.9613954 0.462388417,13.0958671 0.367100303,13.2759609 C0.290023838,13.4214043 0.242167165,13.5761873 0.219192608,13.7390104 C0.204581963,13.8425253 0.206170597,13.9472368 0.217710281,14.0509683 C0.229251463,14.1545937 0.251908593,14.2563712 0.280388718,14.356628 C0.300293812,14.4267966 0.323585797,14.4956626 0.355984355,14.5609433 C0.374405625,14.5980915 0.392617274,14.6353486 0.409979954,14.6731481 C0.470858638,14.8058831 0.549947473,14.9269943 0.634859304,15.0443051 C0.659105068,15.0777603 0.683138215,15.1114322 0.708759997,15.1438014 C0.73649896,15.1787775 0.764237923,15.2140791 0.795154154,15.2459046 C0.943272969,15.3986261 1.09245187,15.5502601 1.24131185,15.7022198 C1.25327677,15.7144949 1.26492276,15.7273124 1.27805108,15.7381743 C1.41071327,15.8470118 1.52103427,15.9798544 1.64416765,16.0989025 C1.70536376,16.1776535 1.76962934,16.2541218 1.82722594,16.3354781 C1.93892445,16.4931951 2.03590601,16.6603624 2.11531228,16.8377403 C2.18349628,16.9901347 2.23495096,17.148288 2.25803183,17.3144767 C2.27084272,17.4070206 2.28566598,17.5000007 2.28301876,17.5942834 C2.2741248,17.9155824 2.18879073,18.2104877 1.99599101,18.4680283 C1.96306391,18.5120199 1.93267772,18.5580744 1.88969176,18.5935927 C1.80806201,18.661047 1.73130297,18.7353432 1.6341103,18.7803118 C1.57863087,18.8059466 1.52304664,18.8315815 1.46788614,18.8581949 C1.46375659,18.8601488 1.46238057,18.8694915 1.46132048,18.8756806 C1.46090124,18.8778542 1.46460406,18.8820908 1.4673561,18.8833934 C1.49816602,18.8975135 1.52855221,18.9133725 1.56031441,18.9246691 C1.67476646,18.9651844 1.77100685,19.036115 1.85994193,19.1169275 C2.02828326,19.2699747 2.14622851,19.4587583 2.21716455,19.6775194 C2.27963037,19.87032 2.28397254,20.0661637 2.23855197,20.2635266 C2.23622217,20.2736296 2.23378756,20.2838387 2.23039918,20.2936146 C2.16666215,20.4781616 2.06756341,20.6357696 1.90822084,20.7498238 C1.82097921,20.8121705 1.72876206,20.8607244 1.62394513,20.8830996 C1.58710109,20.891029 1.55046817,20.8976559 1.51288297,20.8983057 C1.47900209,20.8988433 1.4451227,20.8990584 1.41134813,20.8995038 C1.2630167,20.9014578 1.13300173,20.8513847 1.0175974,20.7566672 C0.888429898,20.6507622 0.801294578,20.5162898 0.769426064,20.3503176 C0.723900686,20.1131983 0.787531405,19.9102961 0.969742222,19.7516006 C1.02490422,19.7035905 1.08980465,19.6741538 1.15819977,19.6522133 C1.16465912,19.6501487 1.17132959,19.648737 1.17810487,19.6479767 C1.21410293,19.6438491 1.24565402,19.6527555 1.26820484,19.6834949 C1.29266172,19.7168427 1.29742613,19.7538817 1.27889855,19.791248 C1.27159323,19.8060193 1.25920607,19.8202485 1.24554771,19.8290474 C1.22574892,19.8418648 1.20277437,19.8493596 1.18117583,19.8594611 C1.08758116,19.903127 1.01791632,19.9730776 0.98181195,20.0712713 C0.937873708,20.1905376 0.943485585,20.3099114 1.00446908,20.4233112 C1.02077467,20.4536159 1.041102,20.4817485 1.05963108,20.5107505 C1.08609883,20.5520262 1.12040345,20.5851558 1.160847,20.6117676 C1.2830266,20.6921469 1.41314788,20.7234301 1.5577735,20.6888888 C1.68747104,20.6579313 1.79789835,20.5956921 1.88768089,20.495761 C1.96221644,20.4127749 2.01748325,20.3175137 2.04247017,20.2067206 C2.05538737,20.1493694 2.06237527,20.0904974 2.07116292,20.0321677 C2.07317379,20.0185899 2.07285636,20.0043607 2.07179178,19.9905663 C2.05485134,19.7773445 1.98804485,19.5819356 1.85813619,19.4144426 C1.7737529,19.3057126 1.67656022,19.2084974 1.55215563,19.144845 C1.47867867,19.1071546 1.40202445,19.0811941 1.3216659,19.0664212 C1.27836251,19.0583842 1.23442427,19.0542566 1.19080346,19.0488249 C1.1807461,19.0475192 1.17047613,19.0469785 1.16041727,19.0476267 C1.00361712,19.0577283 0.851367254,19.0840145 0.712670942,19.1672171 C0.611983568,19.2275024 0.521461357,19.3004944 0.451053863,19.3951028 C0.338720496,19.545978 0.258360454,19.7145569 0.222575006,19.9016032 C0.206375727,19.9863266 0.193247409,20.0722452 0.192929982,20.1599011 C0.192615549,20.2545095 0.206164608,20.3473821 0.223951024,20.438949 C0.267360719,20.6623814 0.350895035,20.8702806 0.464182181,21.066559 C0.538612918,21.1955996 0.624689648,21.3157354 0.713835841,21.4339141 C0.730352547,21.4558545 0.749303862,21.4759501 0.768467793,21.4956095 C0.919446449,21.650285 1.07074103,21.8047439 1.22193081,21.9590953 C1.23389573,21.9713689 1.24554172,21.9841863 1.25877635,21.9949392 C1.39408427,22.1060579 1.50673506,22.2413997 1.63198563,22.3631637 C1.72748486,22.480473 1.82372675,22.5971325 1.90302671,22.7271516 C2.00562014,22.8955125 2.09751987,23.0696323 2.16390263,23.2563529 C2.22573509,23.4300379 2.26893217,23.6085019 2.26543747,23.7956541 C2.26480861,23.830412 2.2644792,23.8651699 2.2655872,23.8999309 C2.27130389,24.1063078 2.21730829,24.2981329 2.13229015,24.482789 C2.08432867,24.5868476 2.0294856,24.6863425 1.95738465,24.7750859 C1.94002048,24.7963751 1.92361008,24.8188594 1.9039176,24.8377598 C1.766491,24.9699526 1.61434894,25.0777041 1.4306543,25.1315791 C1.41149187,25.137229 1.37976111,25.1525518 1.37976111,25.1525518 L1.36081878,25.1597639 Z" id="path4489"></path>
                                </g>
                            </g>
                        </g>
                    </g>
                </g>
                <g id="overlay" mask="url(#mask-2)">
                    <use fill="url(#linearGradient-6)" fill-rule="evenodd" style="mix-blend-mode: overlay;" xlink:href="#path-7"></use>
                    <rect stroke-opacity="0.1" stroke="#000000" stroke-width="1" stroke-linejoin="square" x="0.5" y="0.5" width="31" height="23" rx="2"></rect>
                </g>
            </g>
        </g>
    </g>
</svg>