<?xml version="1.0" encoding="UTF-8"?>
<svg width="22px" height="18px" viewBox="0 0 22 18" version="1.1" xmlns="http://www.w3.org/2000/svg" xmlns:xlink="http://www.w3.org/1999/xlink">
    <!-- Generator: Sketch 62 (91390) - https://sketch.com -->
    <title>Chechen- M Copy</title>
    <desc>Created with Sketch.</desc>
    <defs>
        <rect id="path-1" x="0" y="0" width="16" height="12" rx="2"></rect>
        <filter x="-34.4%" y="-29.2%" width="168.8%" height="191.7%" filterUnits="objectBoundingBox" id="filter-3">
            <feOffset dx="0" dy="2" in="SourceAlpha" result="shadowOffsetOuter1"></feOffset>
            <feGaussianBlur stdDeviation="1.5" in="shadowOffsetOuter1" result="shadowBlurOuter1"></feGaussianBlur>
            <feColorMatrix values="0 0 0 0 0   0 0 0 0 0   0 0 0 0 0  0 0 0 0.1 0" type="matrix" in="shadowBlurOuter1"></feColorMatrix>
        </filter>
        <rect id="path-4" x="0" y="0" width="16" height="12" rx="2"></rect>
        <linearGradient x1="50%" y1="100%" x2="50%" y2="0%" id="linearGradient-6">
            <stop stop-color="#000000" stop-opacity="0.3" offset="2.42052023%"></stop>
            <stop stop-color="#FFFFFF" stop-opacity="0.7" offset="100%"></stop>
        </linearGradient>
        <rect id="path-7" x="0" y="0" width="16" height="12" rx="2"></rect>
    </defs>
    <g id="Page-1" stroke="none" stroke-width="1" fill="none" fill-rule="evenodd">
        <g id="Desktop-HD" transform="translate(-490.000000, -541.000000)">
            <g id="Chechen--M-Copy" transform="translate(493.000000, 542.000000)">
                <mask id="mask-2" fill="white">
                    <use xlink:href="#path-1"></use>
                </mask>
                <g id="drop-shadow" fill="black" fill-opacity="1">
                    <use filter="url(#filter-3)" xlink:href="#path-1"></use>
                </g>
                <g id="chechen" mask="url(#mask-2)">
                    <mask id="mask-5" fill="white">
                        <use xlink:href="#path-4"></use>
                    </mask>
                    <use id="Mask" fill="#D8D8D8" xlink:href="#path-4"></use>
                    <g mask="url(#mask-5)">
                        <g transform="translate(0.000000, -0.750000)">
                            <g id="g4557" transform="translate(0.000000, 0.250000)">
                                <g id="g4555" fill-rule="nonzero">
                                    <path d="M0,12.9955985 C0,8.66373237 0,4.33186618 0,0 C6.16504987,0 12.3300997,0 18.4951496,0 C18.4951496,4.33186618 18.4951496,8.66373237 18.4951496,12.9955985 C12.3300997,12.9955985 6.16504987,12.9955985 0,12.9955985 Z M10.1065674,0.29415526 C7.346224,0.29415526 4.58593331,0.29415526 1.82558991,0.29415526 C1.80703192,0.29415526 1.78847392,0.29415526 1.76996865,0.29426844 C1.76322029,0.294320838 1.75652465,0.294792422 1.74977629,0.295316405 C1.74144628,0.295945183 1.7341707,0.30312374 1.7339071,0.311979041 C1.73322172,0.333724305 1.73263592,0.355521967 1.73263592,0.377319629 C1.73263592,2.72753728 1.73263592,5.07780734 1.73263592,7.42802499 C1.73263592,7.44479242 1.73263592,7.46155985 1.73263592,7.47832729 C1.73290539,7.48498186 1.73369621,7.49168884 1.73432887,7.49834341 C1.73506697,7.50594115 1.74297521,7.51416767 1.75114705,7.51442967 C1.77640068,7.51537283 1.80165432,7.51633277 1.82690795,7.51633277 C7.34248076,7.51633277 12.8581063,7.51633277 18.3736791,7.51633277 C18.3922371,7.51633277 18.4107951,7.5164208 18.4293004,7.51610641 C18.4376831,7.51594921 18.4461186,7.51516324 18.4545013,7.51427247 C18.4622514,7.5134341 18.469896,7.50541717 18.4701596,7.49703345 C18.470845,7.47528819 18.4715567,7.45349053 18.4715567,7.43174526 C18.4715567,5.07985087 18.4715567,2.72790407 18.4715567,0.376009674 C18.4715567,0.360918984 18.4715567,0.345828295 18.4715567,0.330737606 C18.4713195,0.324083031 18.4707395,0.317376058 18.4701069,0.310721483 C18.469316,0.302494962 18.4618296,0.295211608 18.4532887,0.295002015 C18.4313565,0.294530431 18.4094771,0.29415526 18.3875449,0.29415526 C15.6272015,0.29415526 12.8669108,0.29415526 10.1065674,0.29415526 Z M10.1019279,12.5256389 C12.8537831,12.5256389 15.6056911,12.5256389 18.3575463,12.5256389 C18.3777914,12.5256389 18.3980365,12.5257437 18.4182288,12.5255865 C18.4283514,12.5255341 18.4384739,12.5252197 18.4485437,12.5245909 C18.4626204,12.5236477 18.4704759,12.5159976 18.4708977,12.502636 C18.4715011,12.4858686 18.4715011,12.4691012 18.4715011,12.4523337 C18.4715011,12.231056 18.4715011,12.0097783 18.4715011,11.7885006 C18.4715011,10.760919 18.4715011,9.73333736 18.4715011,8.70570335 C18.4715011,8.68725917 18.4715011,8.66881499 18.4711086,8.65037082 C18.4706868,8.63297461 18.4635167,8.62516727 18.4471203,8.62459089 C18.428615,8.62390971 18.410057,8.62385732 18.391499,8.62385732 C12.8658036,8.62381802 7.34016101,8.62381802 1.81446566,8.62385732 C1.79928185,8.62385732 1.78409803,8.62370012 1.76896694,8.62406691 C1.7622713,8.6242241 1.75562838,8.62532447 1.74898547,8.62621524 C1.74339698,8.62694881 1.73569963,8.63407497 1.73543602,8.63952439 C1.73443431,8.65954051 1.73306355,8.67960903 1.73306355,8.69962515 C1.73306355,9.95016123 1.73306355,11.2006973 1.73306355,12.4512858 C1.73306355,12.4663765 1.73306355,12.4814672 1.73348532,12.4965578 C1.73359077,12.5015357 1.73374893,12.5069851 1.73580507,12.5113341 C1.73775577,12.5154736 1.74165717,12.5198751 1.74576945,12.5215518 C1.75177971,12.5240145 1.75873896,12.5250625 1.76538188,12.5252197 C1.78731405,12.5257437 1.8091935,12.5256927 1.83112568,12.5256927 C4.58804218,12.5256389 7.34495868,12.5256389 10.1019279,12.5256389 L10.1019279,12.5256389 Z" id="path4549" fill="#FFFFFF"></path>
                                    <path d="M10.1065674,0.29415526 C12.8669108,0.29415526 15.6272015,0.29415526 18.3875449,0.29415526 C18.4094771,0.29415526 18.4313565,0.294530431 18.4532887,0.295002015 C18.4618296,0.295211608 18.469316,0.302494962 18.4701069,0.310721483 C18.4707395,0.317376058 18.4713195,0.324083031 18.4715567,0.330737606 C18.4715567,0.345828295 18.4715567,0.360918984 18.4715567,0.376009674 C18.4715567,2.72790407 18.4715567,5.07985087 18.4715567,7.43174526 C18.4715567,7.45349053 18.4708977,7.47528819 18.4701596,7.49703345 C18.469896,7.50541717 18.4623041,7.5134341 18.4545013,7.51427247 C18.4461186,7.51516324 18.4377358,7.51594921 18.4293004,7.51610641 C18.4107424,7.5164208 18.3921844,7.51633277 18.3736791,7.51633277 C12.8581063,7.51633277 7.34248076,7.51633277 1.82690795,7.51633277 C1.80165432,7.51633277 1.77640068,7.51537283 1.75114705,7.51442967 C1.74302793,7.51411528 1.73511969,7.50594115 1.73432887,7.49834341 C1.73364349,7.49168884 1.73290539,7.48503426 1.73279994,7.47832729 C1.73262095,7.46155985 1.73262095,7.44479242 1.73262095,7.42802499 C1.73262095,5.07780734 1.73262095,2.72753728 1.73262095,0.377319629 C1.73262095,0.355521967 1.73322172,0.333776703 1.7339071,0.311979041 C1.7341707,0.303176139 1.741499,0.295997582 1.74977629,0.295316405 C1.75647193,0.294792422 1.76322029,0.294320838 1.76996865,0.29426844 C1.78852665,0.29415526 1.80708464,0.29415526 1.82558991,0.29415526 C4.58593331,0.29415526 7.34627672,0.29415526 10.1065674,0.29415526 Z" id="path4551" fill="#2B7338"></path>
                                    <path d="M10.1019279,12.5256403 C7.3450114,12.5256403 4.58804218,12.5256403 1.83112568,12.5256403 C1.8091935,12.5256403 1.78726133,12.5256913 1.76538188,12.5251673 C1.75879168,12.5250101 1.75183243,12.5239621 1.74576945,12.5214994 C1.74165717,12.5198227 1.73775577,12.5154212 1.73580507,12.5112817 C1.73374893,12.5069327 1.73359077,12.5014833 1.73348532,12.4965054 C1.73306355,12.4814148 1.73306355,12.4663241 1.73306355,12.4512334 C1.73306355,11.2006973 1.73306355,9.95016123 1.73306355,8.69957275 C1.73306355,8.67950423 1.73443431,8.65948811 1.73543602,8.63947199 C1.73569963,8.63402257 1.74339698,8.62694881 1.74898547,8.62616284 C1.75562838,8.62527207 1.76232402,8.6241717 1.76896694,8.62401451 C1.78415076,8.62364772 1.79933457,8.62377143 1.81446566,8.62377143 C7.34016101,8.62377143 12.8658036,8.62377143 18.391499,8.62377143 C18.410057,8.62377143 18.428615,8.62385732 18.4471203,8.62453849 C18.4635167,8.62511487 18.4706868,8.63292221 18.4711086,8.65031842 C18.4714876,8.6687626 18.4714876,8.68720677 18.4714876,8.70565095 C18.4714876,9.73323257 18.4714876,10.7608142 18.4714876,11.7884482 C18.4714876,12.0097259 18.4714876,12.2310036 18.4714876,12.4522813 C18.4714876,12.4690488 18.4714876,12.4858162 18.4708977,12.5025836 C18.4704759,12.5159452 18.4625677,12.5236477 18.4485437,12.5245385 C18.4384739,12.5252197 18.4283514,12.5254817 18.4182288,12.5255341 C18.3979838,12.5256913 18.3777387,12.5255865 18.3575463,12.5255865 C15.6056384,12.5256403 12.8537831,12.5256403 10.1019279,12.5256403 L10.1019279,12.5256403 Z" id="path4553" fill="#DA251D"></path>
                                </g>
                            </g>
                            <g id="g4493" transform="translate(0.000000, 0.250000)">
                                <g id="g4491" transform="translate(0.003609, 0.013815)" fill="#FFCC00" fill-rule="nonzero">
                                    <path d="M0.680409388,12.579882 L0.66820116,12.5827292 L0.654482905,12.586167 L0.635024007,12.5899943 L0.605168611,12.5927293 L0.571110298,12.5944805 L0.540932983,12.5937509 L0.476671153,12.5857822 L0.443301597,12.5783312 C0.443301597,12.5783312 0.438695905,12.5812645 0.443301597,12.5783312 C0.447271685,12.5757797 0.436313702,12.581915 0.443301597,12.5783312 C0.429485269,12.5743673 0.418367824,12.5716514 0.407568554,12.5680123 C0.394705258,12.5637227 0.381999926,12.5587794 0.369347749,12.5538923 C0.358284206,12.5496019 0.34716676,12.5452569 0.336315085,12.5403682 C0.287823557,12.5185898 0.244097183,12.4892621 0.205082061,12.4526032 C0.196347567,12.4444019 0.188247927,12.4354417 0.179513433,12.427294 C0.132558134,12.3834123 0.100054017,12.3283407 0.0665976173,12.2739219 C0.0287473938,12.1915879 -0.00158638838,12.1074613 0.0010608364,12.0141563 C0.00222573509,11.9724451 0.00174959398,11.9307885 0.0124949609,11.890002 C0.0395466634,11.7877906 0.090948941,11.7027937 0.175014049,11.6390345 C0.21799926,11.6063942 0.264372859,11.5812486 0.31603941,11.5700595 C0.386181883,11.5548526 0.456853651,11.5542566 0.526784256,11.5760342 C0.57686367,11.5916213 0.619107717,11.6206778 0.655105033,11.6575541 C0.691102349,11.694431 0.718206457,11.7387483 0.736841093,11.7882798 C0.755686848,11.8382446 0.76087424,11.8897309 0.754839377,11.9419776 C0.748116504,12.0001445 0.72540622,12.0519019 0.688032137,12.0969795 C0.653993289,12.1379841 0.610425628,12.1634008 0.56241099,12.1823013 C0.557699739,12.184147 0.55267106,12.185233 0.547694786,12.1861562 C0.519902669,12.1914796 0.492692253,12.1722527 0.487875442,12.1432522 C0.484698922,12.1240806 0.493062834,12.1091449 0.507726633,12.0983905 C0.515879426,12.0924172 0.52530193,12.0876921 0.534830741,12.0845423 C0.566752409,12.0740605 0.590362569,12.0521738 0.612490404,12.0277879 C0.633982635,12.0040547 0.646105517,11.9757585 0.651134945,11.944258 C0.655793042,11.9149303 0.654893165,11.885386 0.651823702,11.8558962 C0.651449377,11.8524745 0.651134945,11.8488892 0.650077103,11.8456311 C0.626043207,11.7717696 0.585545758,11.7128423 0.513179796,11.6805276 C0.437849931,11.6469095 0.363949237,11.653915 0.291795143,11.6878587 C0.225305331,11.7191419 0.17480293,11.7683479 0.13991661,11.8356378 C0.112018934,11.8895128 0.103655021,11.9470829 0.0988906153,12.006173 C0.102754396,12.0423972 0.104766017,12.0789477 0.114136115,12.114304 C0.13123527,12.1786077 0.156750744,12.2389459 0.197142633,12.2916819 C0.233881112,12.3396381 0.274325406,12.3841174 0.324722247,12.4174636 C0.38734753,12.4588484 0.455637095,12.4819855 0.530861401,12.4809532 C0.549495288,12.4825462 0.568129175,12.4818695 0.586710657,12.4809532 C0.669345845,12.4818234 0.742664838,12.4524949 0.810318799,12.4066024 C0.867809095,12.3676071 0.911006174,12.3150356 0.947480379,12.2551313 C0.985859898,12.192131 1.00909948,12.1235361 1.02381643,12.0520102 C1.03355711,12.0046515 1.0410743,11.9560984 1.03742164,11.9071644 C1.03487997,11.8725686 1.03218034,11.8377554 1.02572249,11.8037578 C1.01407575,11.7423328 0.997347925,11.6823748 0.973631457,11.6243169 C0.94208037,11.5470329 0.903754006,11.4737682 0.858068416,11.4045765 C0.814395196,11.3383181 0.766274998,11.2756979 0.710213875,11.2195956 C0.641077587,11.150513 0.573422876,11.0798551 0.504762729,11.0102294 C0.486711292,10.9919265 0.467865537,10.9743847 0.448542892,10.9576025 C0.427791824,10.9395715 0.407939884,10.9207256 0.391370772,10.898567 C0.377871873,10.8804822 0.361990021,10.8651662 0.344573438,10.8510999 C0.332662424,10.8414869 0.320752158,10.8311142 0.311382061,10.8190026 C0.270355317,10.7659955 0.227158239,10.7147266 0.190578473,10.6580812 C0.138964328,10.5781366 0.0945491966,10.4944439 0.0601929205,10.405212 C0.0327182309,10.3337399 0.0166784145,10.2591173 0.00429051053,10.1836259 C0.00344378789,10.1367565 0.00249075703,10.0898324 0.00174959398,10.0429622 C0.00111324187,10.0045652 0.00519038728,9.96660218 0.013872476,9.92929047 C0.0372707688,9.82854524 0.0760208691,9.73502288 0.135470381,9.65057056 C0.19899554,9.56041538 0.282848781,9.49861016 0.382583124,9.4577139 C0.392005627,9.45385823 0.401322571,9.44989349 0.410587109,9.44571139 C0.411910721,9.4451123 0.413551761,9.44266986 0.413286739,9.44163835 C0.412492422,9.43859682 0.411433832,9.43452379 0.409210342,9.43327492 C0.403334192,9.43001603 0.396876341,9.42768035 0.390470896,9.42561657 C0.339915341,9.40926912 0.293806764,9.38401523 0.250873959,9.35240638 C0.202330025,9.31666997 0.160456559,9.27403635 0.125941569,9.22396252 C0.118106952,9.21261132 0.111065903,9.20071787 0.103072572,9.18947574 C0.0626282774,9.1323411 0.0369533414,9.06814644 0.0201723619,9.00042099 C0.00894935663,8.95501774 0.00089979105,8.90869128 0.00307320637,8.86133254 C0.00926678403,8.72631713 0.0578638718,8.61068993 0.159080541,8.52297872 C0.242510046,8.45069175 0.340444636,8.4149561 0.450713976,8.42560068 C0.538166723,8.43407318 0.612914888,8.47089564 0.672416805,8.53916334 C0.709260844,8.58147129 0.736788687,8.62828701 0.750287587,8.68352069 C0.763310346,8.73669059 0.76500454,8.79067463 0.752564231,8.84351887 C0.73329474,8.92520155 0.686338692,8.98700678 0.614714642,9.02849982 C0.596927477,9.03881874 0.577657987,9.04571594 0.557594928,9.04951785 C0.549442134,9.05109238 0.54070764,9.05092955 0.532396133,9.04995564 C0.513656686,9.04772826 0.49819857,9.03257516 0.493804746,9.01345808 C0.48962279,8.99521045 0.497881143,8.97310561 0.513920959,8.96376444 C0.525620106,8.95692177 0.538378591,8.95192475 0.550660187,8.94616735 C0.610743805,8.91814383 0.644994521,8.86910226 0.659340892,8.80430928 C0.663469695,8.78557239 0.664793307,8.76623795 0.661458073,8.74728294 C0.654205905,8.70600726 0.643141613,8.66603575 0.617202404,8.63214576 C0.60259176,8.61302791 0.589304728,8.59282556 0.570140797,8.57778152 C0.537001825,8.55182024 0.499469029,8.53617941 0.458442285,8.53139976 C0.407516897,8.52542577 0.357225616,8.52868466 0.308576122,8.54861588 C0.281472014,8.55975049 0.256591395,8.57419621 0.234146133,8.59277026 C0.166968313,8.64843867 0.123294344,8.71942224 0.110377894,8.8074591 C0.10280755,8.85899994 0.103389999,8.91108379 0.114930432,8.96278669 C0.132664442,9.04229729 0.167073872,9.11344446 0.216252661,9.17660608 C0.267814401,9.2428653 0.33133956,9.29380782 0.409157937,9.32492818 C0.436208891,9.33573558 0.464212876,9.34290468 0.492587442,9.34687019 C0.54811927,9.35468983 0.603544791,9.35517909 0.659129024,9.34295921 C0.739224044,9.32525384 0.807407301,9.28544439 0.868126523,9.23053713 C0.896342375,9.20506511 0.917888509,9.17372815 0.939116467,9.14233744 C0.969237632,9.0978021 0.991259907,9.04908543 1.00798773,8.99765366 C1.03625674,8.91064907 1.04673858,8.82125427 1.03763276,8.73033871 C1.02783967,8.63290537 1.00205918,8.5396549 0.961296707,8.45058576 C0.923711505,8.36846912 0.878555211,8.29107683 0.826518078,8.21802948 C0.798566499,8.17881758 0.768869069,8.14101739 0.73493578,8.10663891 C0.618049875,7.98824207 0.501904385,7.86908561 0.385441468,7.75020029 C0.380624657,7.74531234 0.376283238,7.73971854 0.370883978,7.73569926 C0.324880961,7.70164644 0.291636429,7.65526545 0.256856417,7.61062259 C0.207094431,7.54675358 0.162415775,7.47924626 0.126470864,7.40598154 C0.105136598,7.36253301 0.0842268167,7.31897618 0.0665452118,7.27373576 C0.0456346815,7.22029397 0.0306534555,7.16516936 0.018901155,7.109067 C0.0157253836,7.09386013 0.0143486171,7.078164 0.0126020177,7.06268601 C0.0112252512,7.05062896 0.0114371191,7.03830002 0.00937309227,7.02635204 C-0.00364966652,6.94972014 0.00349694201,6.87390315 0.0190606173,6.79868294 C0.0360534646,6.71645724 0.0658040488,6.63890213 0.10762511,6.56672345 C0.148757413,6.49568581 0.202118906,6.43610735 0.26945544,6.38940054 C0.3147697,6.35790053 0.362625625,6.33308075 0.414292924,6.3153213 C0.420433348,6.31320313 0.425992071,6.30918409 0.431656353,6.30576261 C0.4322403,6.30538241 0.432135489,6.30190662 0.431499137,6.30152643 C0.424193814,6.29745317 0.417099611,6.29272812 0.409318148,6.29001264 C0.377237766,6.27877035 0.345739834,6.26622474 0.315565514,6.25014889 C0.282320983,6.23244366 0.252199069,6.21077385 0.223242053,6.18622565 C0.162205404,6.13452268 0.115249356,6.07119677 0.0761286746,6.00178811 C0.0472772186,5.95051924 0.0261555691,5.89533994 0.015780035,5.83657609 C0.0109624752,5.80925803 0.00487445717,5.78172276 0.00408014,5.75418741 C0.000268765186,5.62547195 0.0359486537,5.5109314 0.124302027,5.41648575 C0.134836274,5.40518924 0.145741852,5.39427284 0.156805395,5.38351943 C0.210113735,5.33187022 0.273850762,5.3006961 0.345422407,5.28831332 C0.392218992,5.28022116 0.439916203,5.28239355 0.487242084,5.28782406 C0.488936278,5.28804219 0.490577318,5.28842238 0.492218358,5.28880234 C0.578824383,5.30791957 0.648384406,5.3539746 0.699045521,5.42865132 C0.712492015,5.44847463 0.724773611,5.46981863 0.733878687,5.49208576 C0.776705184,5.59690479 0.770617166,5.69797629 0.711009689,5.79551762 C0.680675907,5.84515727 0.635520361,5.8739418 0.586447132,5.8985443 C0.577447616,5.90305206 0.56728395,5.90544181 0.557437711,5.90794001 C0.535309877,5.91347966 0.517522712,5.90565894 0.503652482,5.88773651 C0.486818349,5.86595809 0.491635908,5.83396929 0.514451752,5.81935982 C0.522975127,5.81392885 0.532715806,5.8103986 0.541767728,5.80578231 C0.55389061,5.79964526 0.566489633,5.79421414 0.577765792,5.78677361 C0.641237798,5.74506328 0.663948082,5.68282364 0.661724592,5.60841851 C0.641184644,5.44179441 0.494283133,5.36038323 0.36659721,5.38715828 C0.306724712,5.39970389 0.255693016,5.42778241 0.209955021,5.46851507 C0.169722594,5.50435994 0.108049594,5.61059097 0.106991003,5.68955817 C0.106728976,5.7069375 0.107065868,5.72431676 0.106407057,5.74169602 C0.104607303,5.78948917 0.11630645,5.83456676 0.13134083,5.87915564 C0.155586594,5.95111672 0.196295161,6.01303047 0.245527104,6.06848136 C0.309105418,6.14000811 0.389252843,6.18323912 0.482158754,6.20067268 C0.49703442,6.20344262 0.512438633,6.20403987 0.527631727,6.20442006 C0.551348196,6.20501838 0.575063916,6.20474648 0.598727231,6.20452298 C0.657541139,6.20397996 0.712331056,6.18611183 0.764633958,6.16064034 C0.787396648,6.14956096 0.808784068,6.1345713 0.828688413,6.11860412 C0.881096876,6.07656791 0.926993585,6.02823173 0.957803508,5.96658949 C0.977125404,5.92792046 0.995547423,5.88903438 1.00904707,5.84754118 C1.04250347,5.74467741 1.04837962,5.64029295 1.03016872,5.53389908 C1.01031753,5.41789222 0.969925641,5.3100862 0.911694183,5.20868881 C0.865956188,5.12912414 0.813971461,5.05433889 0.756216892,4.98362683 C0.749705138,4.9756432 0.742664838,4.96809399 0.735359515,4.96081652 C0.689197785,4.91492432 0.646847429,4.8649044 0.595657019,4.82438888 C0.587663688,4.818089 0.580887661,4.81005099 0.573687898,4.80271914 C0.492058147,4.71940709 0.410851382,4.63560617 0.328692336,4.5528916 C0.298306148,4.52231495 0.271255194,4.48880538 0.246321421,4.45393811 C0.196242756,4.3839322 0.148863721,4.31175383 0.110748475,4.23392698 C0.0679219784,4.14654696 0.0362653325,4.05481687 0.0186368817,3.95874185 C0.00767889835,3.89910909 -0.000632608863,3.83849881 0.0037612153,3.77745397 C0.00931993815,3.69924716 0.0220245209,3.62223499 0.0492349371,3.54848163 C0.0642161631,3.50785742 0.0808384289,3.46799359 0.102383814,3.43035653 C0.138911174,3.3664876 0.187613821,3.31342646 0.242192619,3.26639361 C0.27977782,3.23402469 0.321387013,3.20692391 0.368131193,3.18927299 C0.391953222,3.18031185 0.415404669,3.17037304 0.438961675,3.16070582 C0.440337693,3.1601628 0.442296909,3.15799034 0.442031887,3.15706697 C0.441343129,3.15418851 0.440390847,3.15000664 0.438326072,3.14908335 C0.412069435,3.13708299 0.384912173,3.12692697 0.359343545,3.11362083 C0.285972147,3.07527776 0.222605701,3.02449761 0.173373758,2.95563213 C0.134093614,2.90072441 0.099049329,2.84391582 0.0761271773,2.77944941 C0.0483874659,2.7014055 0.0350472797,2.62097192 0.0443642232,2.53885467 C0.0588693081,2.41089952 0.112865656,2.30407101 0.215140916,2.22504959 C0.259291026,2.1909427 0.308046827,2.16856681 0.360719563,2.15357714 C0.387188816,2.14602801 0.414398484,2.1451591 0.441290724,2.14450732 C0.483587926,2.14347528 0.525461392,2.14716851 0.566594444,2.16052888 C0.614555928,2.17611594 0.655423209,2.20294529 0.692691732,2.2362918 C0.704073451,2.24650219 0.714183963,2.25855908 0.723289788,2.27099609 C0.748911569,2.30591759 0.768127906,2.34458654 0.783479713,2.38526513 C0.792108648,2.40812974 0.797190481,2.4318091 0.797190481,2.45646583 C0.797190481,2.4703693 0.797826833,2.48427284 0.797504914,2.49817631 C0.795599601,2.5911555 0.756743192,2.66550634 0.686918147,2.72285803 C0.660396488,2.74469074 0.62905727,2.75875719 0.596024606,2.76798992 C0.592742526,2.76891313 0.589407293,2.76945631 0.586072059,2.76994518 C0.563044348,2.77325799 0.540916513,2.75951758 0.534087332,2.73768478 C0.527099437,2.71525467 0.535199077,2.68913133 0.553886118,2.6781064 C0.565585264,2.67120897 0.578237441,2.66604951 0.590677751,2.66061839 C0.617781859,2.64872456 0.639856539,2.63009604 0.658491175,2.60712276 C0.677283776,2.58398649 0.689088482,2.55775462 0.69401235,2.52766676 C0.709469717,2.43278654 0.677389335,2.35561169 0.606770721,2.29684784 C0.551821342,2.25117278 0.48591398,2.23471688 0.41545408,2.24747978 C0.295656677,2.26914951 0.213867463,2.34045897 0.166382869,2.45418484 C0.154313141,2.48307789 0.147219687,2.51365469 0.146637237,2.54526331 C0.146105696,2.57654603 0.145577898,2.60782884 0.146846859,2.63905726 C0.148540304,2.681202 0.159710155,2.72139164 0.175909434,2.75989769 C0.207830353,2.83576929 0.251186894,2.90376571 0.312011675,2.95878218 C0.371831768,3.01287522 0.441232329,3.04926318 0.519845023,3.06132007 C0.586810976,3.07158469 0.654994982,3.07288817 0.721378485,3.05339074 C0.815395392,3.02580102 0.893266923,2.97360879 0.952874399,2.89312098 C1.00485913,2.82295201 1.04228636,2.74572271 1.0615027,2.65985801 C1.07516031,2.59875902 1.08299568,2.53662798 1.07833683,2.47379094 C1.07574276,2.43924956 1.07187823,2.40443658 1.06462607,2.37065558 C1.0492211,2.29929182 1.02756941,2.22977455 0.99623094,2.16384192 C0.974684806,2.11854704 0.953456849,2.07308926 0.926511454,2.03078153 C0.879238728,1.95659368 0.830112345,1.88425225 0.767804489,1.82163242 C0.635937359,1.68911521 0.505922388,1.5546972 0.374795672,1.42141969 C0.327734064,1.37357224 0.285913752,1.3213257 0.248698383,1.26516874 C0.21344223,1.21199907 0.179826369,1.15796026 0.151769978,1.100174 C0.122230513,1.03934645 0.0967674452,0.977106805 0.0772868355,0.91215168 C0.0552114064,0.838615453 0.0418180661,0.763775823 0.0428242511,0.686546521 C0.0429814675,0.674381025 0.042929062,0.662215529 0.0428242511,0.650050033 C0.0420299339,0.545556892 0.0661169843,0.447092273 0.110584521,0.353461303 C0.132129906,0.308112126 0.156163803,0.264609602 0.185543805,0.223768184 C0.228740884,0.16375531 0.283637109,0.11840621 0.345521229,0.0814208499 C0.407564062,0.0443268858 0.474583169,0.0206475947 0.545942946,0.0105458826 C0.557695247,0.00886221274 0.569235679,0.0057665367 0.581041134,0.00478894671 C0.599568713,0.00321395767 0.618414468,0.000444170563 0.636678522,0.00245365257 C0.724977992,0.0120122676 0.810049286,0.0333561878 0.887920068,0.079194083 C0.915924053,0.0957044321 0.942710733,0.113735468 0.965579731,0.137469138 C0.973891238,0.146104465 0.982308305,0.15468549 0.991148359,0.16277772 C1.04239192,0.209701809 1.08077219,0.266673386 1.11306369,0.328207023 C1.14630897,0.391641461 1.1677488,0.458931957 1.17394237,0.531001723 C1.17425681,0.53447759 1.1743167,0.537953457 1.1748415,0.541375022 C1.18553521,0.611815496 1.17404793,0.68002928 1.15191935,0.746233582 C1.1278862,0.818140442 1.08823548,0.880760273 1.03238622,0.930943021 C0.976801987,0.980908561 0.913752969,1.01767664 0.839588002,1.03005942 C0.790832201,1.03820595 0.74149395,1.03945505 0.692950765,1.03005942 C0.628313861,1.01756803 0.572147177,0.987371423 0.524821297,0.939198234 C0.47400072,0.887494799 0.439697598,0.827373245 0.425774962,0.755086194 C0.402270361,0.632887906 0.446685493,0.503303468 0.568759538,0.431613816 C0.58802828,0.420317306 0.608726943,0.412442284 0.630749218,0.409346608 C0.650865431,0.406522442 0.667223423,0.414071652 0.679451865,0.430907813 C0.696021725,0.453772497 0.690833584,0.483697442 0.667117115,0.498850011 C0.659970507,0.503412072 0.652347757,0.50764832 0.644354426,0.5102009 C0.612432758,0.520356914 0.588346456,0.541537928 0.56584804,0.565760393 C0.54657855,0.586561216 0.533714505,0.610837906 0.527891508,0.638373255 C0.51486875,0.7001241 0.520110045,0.760082748 0.554307607,0.81390427 C0.587498985,0.866205104 0.632496566,0.904819755 0.691416033,0.924317176 C0.730854142,0.93740596 0.770239846,0.938437852 0.811531612,0.930943021 C0.892737628,0.916224946 0.95594536,0.872993932 1.00655332,0.809070622 C1.03339315,0.775181014 1.050386,0.73488277 1.06330245,0.693226745 C1.08114277,0.635766374 1.08294252,0.577491396 1.07203695,0.518184526 C1.06092025,0.457628478 1.03932171,0.401471586 1.00972984,0.348301843 C0.993689275,0.319517317 0.97484352,0.292850954 0.951551536,0.269660458 C0.938158195,0.256354389 0.924499833,0.243265605 0.912218986,0.22892772 C0.876485943,0.187271695 0.83053608,0.161854432 0.781621565,0.141270817 C0.750229193,0.128019127 0.717620265,0.118297529 0.684269425,0.111943271 C0.645678038,0.104611346 0.606609762,0.105317426 0.567912067,0.11058549 C0.499834369,0.119872595 0.436944813,0.144692382 0.377919038,0.180482867 C0.339539519,0.203782044 0.306929842,0.234141483 0.278767143,0.269063059 C0.205818732,0.359652655 0.161933645,0.463602622 0.147005573,0.58026126 C0.14568196,0.59058018 0.144199634,0.600899177 0.142399881,0.611163795 C0.136894312,0.642229313 0.136417422,0.673566341 0.139858964,0.704686161 C0.143829053,0.740856837 0.148910886,0.777081892 0.156163803,0.812763774 C0.175273831,0.906883539 0.208200935,0.99573524 0.253939679,1.07991628 C0.288666536,1.14383951 0.327311077,1.20488435 0.370613715,1.26288774 C0.387077267,1.28493774 0.403964555,1.30671623 0.421593006,1.32778864 C0.431492399,1.33957403 0.443085237,1.34989295 0.454255088,1.36048338 C0.474107028,1.37938347 0.494858096,1.39730575 0.514074432,1.41680317 C0.622385305,1.52683604 0.730112979,1.63741178 0.838476257,1.74733589 C0.879556155,1.78904622 0.915182889,1.83521 0.949381201,1.88278587 C0.977596305,1.92194354 1.00295381,1.96305654 1.02762256,2.00454959 C1.06737885,2.07151435 1.09956479,2.14228056 1.12518657,2.2161969 C1.13254505,2.23748667 1.13953294,2.2589392 1.14556781,2.280609 C1.16324866,2.34431511 1.17621827,2.40878136 1.17394237,2.47563752 C1.17325362,2.49643834 1.17314806,2.51734784 1.17401724,2.53820289 C1.17751119,2.62330722 1.15808298,2.70401239 1.12706119,2.78178471 C1.09873978,2.85271405 1.0637479,2.92016753 1.01515081,2.97925712 C1.0096984,2.98588304 1.00461656,2.99299768 0.998422986,2.99886322 C0.94093269,3.05328222 0.880742765,3.1037907 0.806523895,3.13284681 C0.78757258,3.14023289 0.767879354,3.14555533 0.748504304,3.15169246 C0.741304541,3.15397345 0.73648773,3.15864411 0.738816779,3.16157696 C0.741781431,3.16537856 0.745063511,3.17010368 0.749192313,3.17156999 C0.779578501,3.18264929 0.809117966,3.19568378 0.837386972,3.21154235 C0.891223858,3.24179326 0.940085219,3.27850711 0.978941628,3.32803816 C0.986353258,3.33748809 0.994929039,3.34601474 1.0027105,3.35513893 C1.01049271,3.36426306 1.01869791,3.37316997 1.02552709,3.3830544 C1.07703493,3.45762252 1.11504462,3.53843637 1.13113759,3.62897166 C1.1353727,3.65286824 1.14018951,3.67692772 1.14140756,3.70109581 C1.14627753,3.79554146 1.12610816,3.88488196 1.07804112,3.96536992 C1.01721559,4.06731033 0.930345289,4.13601291 0.81621142,4.16566634 C0.803188661,4.1690336 0.789584202,4.17104316 0.776190861,4.17191207 C0.755915935,4.17321547 0.735587854,4.17359566 0.715259773,4.17321547 C0.585456669,4.17055429 0.489745568,4.1095096 0.425372937,3.99464324 C0.400439164,3.95016297 0.387681428,3.9018811 0.381699718,3.85137254 C0.380693533,3.84279152 0.380111083,3.83399328 0.380746687,3.82535796 C0.385776114,3.75806731 0.404251288,3.69555616 0.445912886,3.64211475 C0.48201651,3.59578813 0.529236832,3.56656912 0.584450484,3.55049326 C0.590855929,3.54864668 0.59779067,3.54804928 0.604514292,3.54804928 C0.62844188,3.54799552 0.650040419,3.56885011 0.651840173,3.59366997 C0.652793203,3.60643287 0.648558093,3.61810957 0.639505423,3.62669059 C0.6322001,3.6336424 0.623571914,3.63950787 0.614784266,3.6444502 C0.599961005,3.65281394 0.584238616,3.65949416 0.569416104,3.6678579 C0.540353529,3.68425964 0.518331254,3.70804754 0.50467364,3.73905883 C0.484662987,3.78451646 0.476934677,3.83100621 0.489163119,3.88102598 C0.514149297,3.98312937 0.590485348,4.05780609 0.698954934,4.07361036 C0.741833837,4.07985609 0.78344303,4.07094918 0.82362305,4.05633971 C0.889742281,4.03233453 0.941885721,3.98807162 0.981059557,3.92974234 C1.01705687,3.87608372 1.0373318,3.81585349 1.03944973,3.74926907 C1.04151376,3.68382508 1.03076764,3.62153113 1.00832238,3.56059497 C0.995617048,3.52605366 0.977195028,3.49493369 0.957978692,3.46435697 C0.920922037,3.40537606 0.874972174,3.35503025 0.816740715,3.31685017 C0.783549338,3.29507168 0.748186877,3.27905021 0.710971508,3.26699331 C0.675291619,3.25547944 0.638129405,3.25135187 0.601179058,3.24662691 C0.594508591,3.24575754 0.587627004,3.2457037 0.580904131,3.24602859 C0.507426424,3.24961313 0.436437229,3.26373381 0.371164721,3.30055619 C0.341360983,3.31739242 0.313251439,3.33650966 0.289376256,3.36170963 C0.276406651,3.37539589 0.263330739,3.3890277 0.249778685,3.40217078 C0.213517095,3.43736395 0.187418424,3.47978028 0.166772915,3.52594421 C0.141944702,3.58144933 0.122993387,3.63880094 0.113359016,3.69935707 C0.102030451,3.77028634 0.102030451,3.8410527 0.113037097,3.91198197 C0.128653927,4.01240184 0.159886837,4.10766218 0.205677986,4.1975457 C0.242575927,4.26999565 0.285825411,4.33837234 0.335004948,4.40294728 C0.36120918,4.43738014 0.390059887,4.46877154 0.420075493,4.49940242 C0.528121344,4.60970679 0.636060886,4.7200654 0.74426545,4.8302068 C0.758664976,4.84487057 0.774651638,4.85779637 0.789527304,4.87197135 C0.803132513,4.8849516 0.81800743,4.89706272 0.829335995,4.91194386 C0.880420845,4.97896269 0.932353167,5.04543858 0.975391532,5.11848593 C0.977138131,5.12147308 0.979202906,5.12424287 0.9808971,5.12728424 C1.01340047,5.18626522 1.0454277,5.24562647 1.07083761,5.30819193 C1.1035536,5.38873419 1.12520454,5.47242635 1.13473335,5.55948586 C1.13854473,5.59408155 1.14320357,5.62851433 1.14124511,5.66327284 C1.1353158,5.76993845 1.11736992,5.87372543 1.06872043,5.96980038 C1.05702128,5.99293665 1.04569272,6.01629005 1.03282867,6.03872024 C0.991748775,6.11024691 0.936217696,6.16825038 0.870098465,6.21533737 C0.832406956,6.24216672 0.790692203,6.26155538 0.74802442,6.27877181 C0.738654322,6.28257349 0.729496092,6.28702703 0.720391016,6.2913718 C0.719067404,6.29202389 0.717426364,6.29419589 0.717585078,6.29539077 C0.718064214,6.29854082 0.718696823,6.30337439 0.720708444,6.30435198 C0.731295846,6.30962005 0.742095115,6.31472528 0.753318121,6.31830983 C0.810596548,6.33672106 0.86205198,6.36648302 0.909642883,6.4033054 C0.944899036,6.43062354 0.975550245,6.46331842 1.00365979,6.49807702 C1.05950905,6.56726801 1.09921218,6.64547521 1.12213433,6.7322632 C1.13367476,6.77592832 1.14267428,6.82040836 1.14198627,6.86581238 C1.14071506,6.95232848 1.12123445,7.03384833 1.07771995,7.10928513 C1.01340047,7.22073023 0.918324223,7.28758624 0.796567605,7.31392694 C0.706785808,7.33331514 0.620974101,7.31631638 0.542731988,7.26705669 C0.500541095,7.24044486 0.46666096,7.20362241 0.439133116,7.16115162 C0.409541246,7.11553101 0.392707112,7.06485962 0.383390168,7.011255 C0.379789913,6.99056263 0.378890036,6.96981649 0.382066556,6.94901582 C0.38810142,6.90931467 0.398794381,6.87113428 0.416581546,6.83501845 C0.443580094,6.78021872 0.485241693,6.74084399 0.537438287,6.71260233 C0.55543732,6.70288097 0.57481237,6.69609206 0.59524601,6.69391998 C0.609115492,6.69245375 0.622508832,6.69441154 0.633466815,6.7041306 C0.661100219,6.72856959 0.652948174,6.76332826 0.631032207,6.78059891 C0.625790912,6.78478101 0.619279907,6.78733405 0.613138734,6.79026651 C0.602392619,6.79542559 0.591222768,6.79966222 0.58079408,6.80536509 C0.50964617,6.84446792 0.473542546,6.92957232 0.484024388,6.99751436 C0.500222919,7.10287641 0.55660147,7.17527245 0.65771258,7.20720696 C0.695669111,7.21920947 0.735001661,7.21861192 0.773539893,7.21198584 C0.865439619,7.19612765 0.935740806,7.14605305 0.985872625,7.06562 C1.00609515,7.03314248 1.02128824,6.99881777 1.0302346,6.96112663 C1.04246304,6.9094775 1.04320421,6.85728535 1.03484029,6.80585357 C1.02382916,6.73861738 0.999583393,6.67583441 0.963427363,6.6177228 C0.933887898,6.570255 0.898049296,6.52887095 0.856970147,6.49253736 C0.810225967,6.45120723 0.755488456,6.4236175 0.696039693,6.40650983 C0.639819855,6.39027091 0.582117692,6.38902181 0.52468055,6.39472437 C0.477301516,6.39944941 0.431457212,6.4138416 0.388789429,6.43551149 C0.299854355,6.48069768 0.231194208,6.54793357 0.183550151,6.63798045 C0.145011919,6.71070215 0.121083582,6.78809366 0.109596304,6.86950522 C0.102290982,6.92126265 0.103085299,6.9736184 0.108855141,7.02548413 C0.114625731,7.07729686 0.125954296,7.12818561 0.140194359,7.17831398 C0.150146906,7.21339831 0.161792898,7.24783132 0.177992177,7.28047167 C0.187202813,7.29904573 0.196308637,7.31767432 0.204989977,7.33657403 C0.235429319,7.40294155 0.274973736,7.46349713 0.317429652,7.52215253 C0.329552534,7.53888017 0.341569108,7.5557161 0.354379999,7.57190071 C0.36824948,7.58938873 0.382118961,7.60703957 0.397577077,7.62295229 C0.471636484,7.69931307 0.546225936,7.77513006 0.620655924,7.85110988 C0.626638383,7.85724747 0.632461379,7.86365618 0.639025538,7.86908715 C0.705356636,7.92350592 0.760517135,7.9899272 0.822083827,8.04945127 C0.852681882,8.08882677 0.884814669,8.12706092 0.913612971,8.16773905 C0.969462227,8.24659757 1.01795301,8.3301812 1.05765614,8.41887015 C1.09174814,8.49506733 1.11747548,8.57414398 1.12901591,8.65723836 C1.13542136,8.70351029 1.14283299,8.75000034 1.14150938,8.79714172 C1.1370624,8.95779121 1.09439537,9.10524386 0.997995507,9.23401415 C0.981531955,9.25600993 0.966338861,9.27903721 0.944845882,9.29679635 C0.904031006,9.33052351 0.865651487,9.36767162 0.817055148,9.39015589 C0.789315437,9.40297331 0.76152332,9.41579074 0.733943071,9.42909743 C0.731878295,9.4300744 0.731190286,9.43474576 0.730660242,9.43784028 C0.73045062,9.43892709 0.732302031,9.44104541 0.733678049,9.44169672 C0.74908301,9.44875675 0.764276104,9.45668623 0.780157207,9.46233456 C0.837383229,9.48259221 0.885503427,9.5180575 0.929970964,9.55846373 C1.01414163,9.63498734 1.07311425,9.72937915 1.10858227,9.83875971 C1.13981518,9.93516 1.14198627,10.0330818 1.11927598,10.1317633 C1.11811109,10.1368148 1.11689378,10.1419194 1.11519959,10.1468073 C1.08333107,10.2390808 1.0337817,10.3178848 0.95411042,10.3749119 C0.910489606,10.4060853 0.864381029,10.4303622 0.811972566,10.4415498 C0.793550547,10.4455145 0.775234087,10.4488279 0.756441487,10.4491528 C0.739501045,10.4494217 0.722561352,10.4495292 0.705674064,10.4497519 C0.631508348,10.4507289 0.566500863,10.4256924 0.508798699,10.3783336 C0.444214949,10.3253811 0.400647289,10.2581449 0.384713032,10.1751588 C0.361950343,10.0565991 0.393765702,9.95514806 0.484871111,9.87580029 C0.512452109,9.85179527 0.544902323,9.83707688 0.579099886,9.82610665 C0.58232956,9.82507437 0.585664794,9.82436852 0.589052433,9.82398833 C0.607051465,9.82192455 0.622827008,9.82637777 0.634102419,9.84174747 C0.646330861,9.85842134 0.648713063,9.87694086 0.639449274,9.89562399 C0.635796613,9.90300967 0.629603035,9.91012424 0.622773854,9.9145237 C0.612874461,9.92093241 0.601387183,9.92467979 0.590587913,9.92973057 C0.543790579,9.95156352 0.508958161,9.98653878 0.490905975,10.0356356 C0.468936854,10.0952688 0.471742793,10.1549557 0.50223454,10.2116556 C0.510387333,10.2268079 0.520551,10.2408742 0.529815538,10.2553753 C0.543049416,10.2760131 0.560201725,10.2925779 0.580423498,10.3058838 C0.641513301,10.3460735 0.706573941,10.3617151 0.778886748,10.3444444 C0.84373552,10.3289656 0.898949173,10.297846 0.943840445,10.2478805 C0.98110822,10.2063875 1.00874162,10.1587568 1.02123509,10.1033603 C1.02769369,10.0746847 1.03118763,10.0452487 1.03558146,10.0160838 C1.03658689,10.0092949 1.03642818,10.0021804 1.03589589,9.99528317 C1.02742567,9.88867225 0.994022424,9.79096778 0.929068093,9.70722132 C0.88687645,9.65285632 0.838280111,9.60424871 0.776077815,9.5724225 C0.739339336,9.55357732 0.701012223,9.54059706 0.660832951,9.53321061 C0.639181257,9.5291921 0.617212137,9.52712832 0.595401729,9.52441245 C0.590373051,9.5237596 0.585238063,9.52348924 0.580208636,9.52381336 C0.501808558,9.52886414 0.425683627,9.54200723 0.356335471,9.58360857 C0.305991784,9.61375118 0.260730679,9.65024721 0.225526931,9.69755141 C0.169360248,9.77298898 0.129180227,9.85727846 0.111287503,9.9508016 C0.103187864,9.99316332 0.0966237045,10.0361226 0.0964649908,10.0799505 C0.0963077744,10.1272547 0.103082304,10.173691 0.111975512,10.2194745 C0.13368036,10.3311907 0.175447517,10.4351403 0.23209109,10.5332795 C0.269306459,10.5977998 0.312344824,10.6578677 0.356917921,10.716957 C0.365176274,10.7279273 0.374651931,10.7379751 0.384233896,10.7478047 C0.459723224,10.8251425 0.535370517,10.9023719 0.610965405,10.9795476 C0.616947863,10.9856844 0.622770859,10.9920932 0.629388173,10.9974696 C0.697042135,11.0530289 0.753367532,11.1206999 0.815992814,11.1815819 C0.863742431,11.2402365 0.911863377,11.2985662 0.951513354,11.3635758 C1.00281007,11.4477562 1.04875994,11.5348161 1.08195131,11.6281764 C1.11286754,11.715019 1.13446608,11.8042509 1.13271874,11.8978271 C1.1324043,11.915206 1.1322396,11.932585 1.1327936,11.9499655 C1.13565194,12.0531539 1.10865414,12.1490665 1.06614508,12.2413945 C1.04216433,12.2934238 1.0147428,12.3431712 0.978692327,12.387543 C0.970010239,12.3981875 0.96180504,12.4094297 0.951958801,12.4188799 C0.8832455,12.4849763 0.807174471,12.5388521 0.715327151,12.5657895 C0.705745934,12.5686145 0.689880553,12.5762759 0.689880553,12.5762759 L0.680409388,12.579882 Z" id="path4489"></path>
                                </g>
                            </g>
                        </g>
                    </g>
                </g>
                <g id="overlay" mask="url(#mask-2)">
                    <use fill="url(#linearGradient-6)" fill-rule="evenodd" style="mix-blend-mode: overlay;" xlink:href="#path-7"></use>
                    <rect stroke-opacity="0.1" stroke="#000000" stroke-width="1" stroke-linejoin="square" x="0.5" y="0.5" width="15" height="11" rx="2"></rect>
                </g>
            </g>
        </g>
    </g>
</svg>